<svg xmlns="http://www.w3.org/2000/svg" id="Careers" viewBox="0 0 675 500"><defs><style>.cls-1{fill:#ff5f14;}</style></defs><g id="Roles_We_Fill"><path class="cls-1" d="M672.55,307.21a1.35,1.35,0,0,0-1.06-.14,1.38,1.38,0,0,0-.84.65c-3.45,6-9.47,5.31-16.45,4.5-5.46-.63-11.11-1.29-15.74,1.56-3.54,2.17-6.6,6-9.85,10.07-4.61,5.76-9.37,11.71-15.24,12.2a7.15,7.15,0,0,1-2.08-.15,9.24,9.24,0,0,0-2.43-2.78,5.09,5.09,0,0,0-2.56-.95,17.53,17.53,0,0,0-1-2.35A34.45,34.45,0,0,0,600,323c-2.13-2.33-4.15-4.53-5.35-7.25-1.94-4.4-1.89-9.1-1.84-14.09,0-.82,0-1.64,0-2.47,0-1.89.1-4.05.22-6.34.37-7.72.84-17.31-2.42-23.85a134.67,134.67,0,0,0,2.92-17.39c.42-5.1-.12-9.14-1.62-12a5.38,5.38,0,0,1,3.78.19c6.62,2.75,11.91,16.3,9.22,36.89a22.66,22.66,0,0,1-1.42,3.27c-2.19,4.52-5.19,10.71-1.53,13a1.4,1.4,0,0,0,1.61-.1,7.34,7.34,0,0,0,1.89-3.68c0-.1.06-.21.1-.32l0,0c.29.46.58,1,.89,1.65,1,1.89,2.06,4,4.07,5a1.36,1.36,0,0,0,1.46-.15,3.06,3.06,0,0,0,1.09-3.16,9.71,9.71,0,0,0,4.7,1.57h0a3.76,3.76,0,0,0,2.92-1.33c2-2.38-.74-5.66-2.74-8.09-.45-.55-.88-1.07-1.07-1.37-3.75-6-2-14.83-.67-21.94l.29-1.47c.13-.71.31-1.47.47-2.16a32.63,32.63,0,0,0,.76-4.09c0-.19.09-.55.17-1v-.07c.42-2.19,1.12-5.84-.17-8.6-1.71-4.61-6.89-7.57-12.38-10.72-3.62-2.08-7.37-4.22-10-6.84a28,28,0,0,1-3.8-4.51,9.36,9.36,0,0,0,3.77-2.33c4.44-4.22,5.9-17.75,4.49-27.74-1.06-7.49-3.59-12.63-7.11-14.46a19.34,19.34,0,0,0-18.73.16A23.23,23.23,0,0,0,562.3,195.1c0,.56-.07,1.11-.07,1.59-.27,1.44-.44,2.9-.61,4.34-.51,4.32-1,8.4-4.06,11.63a12.89,12.89,0,0,0-2.85.21c-5.74,1-12.19,5.55-16.45,11.63a11.37,11.37,0,0,0-4-.16,23,23,0,0,1-2.41.11l.11-1c.45-4.07.95-8.68-.57-12.52.41-5-.62-11.37-4.77-14.48A14.32,14.32,0,0,0,514.15,195c.09-.25.17-.49.26-.72,3.93-10.51,11.39-19.95,18.86-28.58a1.4,1.4,0,0,0-.07-1.91c-.26-.25-.52-.51-.77-.77a1.39,1.39,0,0,0-1.68-.24,11,11,0,0,1-5.91,1.21l0-.17c.74-3.5,1.51-7.11.07-11a1.42,1.42,0,0,0-.89-.85,1.39,1.39,0,0,0-1.22.2,12,12,0,0,0-2,2c-.27.32-.56.65-.85.94-2.5,2.5-3.26,7.07-3.93,11.13-.23,1.39-.45,2.71-.72,3.74a52.63,52.63,0,0,1-4.72,11.19l-.38.74a14.17,14.17,0,0,0-2.26,1.56c-2.49,2-3.23,5.31-3.89,8.22a15.41,15.41,0,0,1-1.49,4.6,7.93,7.93,0,0,1,.34-3.93,1.44,1.44,0,0,0-.54-1.74c-.8-.66-1.7-1.41-2.67-.76a1.45,1.45,0,0,0-.46.53c-2.83,4.41-3.62,9.16-4.38,13.75-.89,5.35-1.73,10.41-5.58,15.12l-.55.66c-.45.56-1,1.2-1.55,1.89-1.54.7-3.18,1.51-4.88,2.4s-3.24,1.76-4.78,2.67c-.84-.68-1.72-1.27-2.59-1.86-.7-.47-1.43-1-2.12-1.49,5-2.51,9.73-7.38,11-11.48,2.55-8-1.18-14.3-6-16.12-3.79-1.43-9.43-.38-12.82,7.29-2.73,6.16-.84,13.69,2.23,18.43l.46.66a6.29,6.29,0,0,1-.85.06h-.12c-2.43,0-4.08-1.33-5.05-4.07-1.72-4.89,1.79-16.54,4.11-24.27.67-2.21,1.24-4.12,1.62-5.61,2.16-8.46,7.25-14.51,12.65-20.92l.11-.14q1.37-1.6,2.74-3.28a1.38,1.38,0,0,0,.27-1.22,1.4,1.4,0,0,0-.82-.95,10.08,10.08,0,0,1-1.14-.57,4.7,4.7,0,0,0-2.25-.78c.12-.3.25-.62.38-1,1.39-3.45,3.48-8.67-2.76-11.21a6.71,6.71,0,0,0-5.79-.07c-3.35,1.73-4.48,6.58-5.39,10.49-.22.94-.43,1.82-.65,2.58A327.1,327.1,0,0,1,454,194l-.25.6c-3.88,9.56-8.28,20.4-10.35,31-.22,1.12-.51,2.44-.81,3.83l0,.17c-.7,3.21-1.57,7.16-2.14,11.15a40.91,40.91,0,0,0-7-3.38,38.33,38.33,0,0,1-4.82-2.21l-.54-.33c0-.31.09-.61.14-.9q.55-3,1.14-6.07c4-20.86,8.05-42.42-.87-62.4-1.82-4.06-5.58-9.28-10.21-10.61a1.4,1.4,0,0,0-1.78,1.34c0,5.82,1.41,11.29,2.75,16.59,1.77,7,3.44,13.59,2.12,20.78-.22,1.16-.6,2.73-1,4.56-1.14,4.71-2.68,11.11-3,16.93a7.54,7.54,0,0,0-1.18-.88c2-5.26,2.94-11.34,2.32-15.56-1-6.78-4.2-8.76-6.72-9.23a10.22,10.22,0,0,0-7.1,1.73c1-2.63,1.09-4.62.18-5.93-1-1.46-2.95-1.82-5.75-1.06a8.58,8.58,0,0,0-2.63,1.31c1.41-6.49-2.6-15.4-9-19.81-4.75-3.27-9.84-3.25-14,0-5.44,4.35-5.24,11.28-5,18l0,.47a16.86,16.86,0,0,0,.05,3.11c0,3.58-.26,7.64-2.26,10.75a5.71,5.71,0,0,0-4.22-.7,10,10,0,0,0-6.73,4.28,14.09,14.09,0,0,0-1.67,3.29,31.18,31.18,0,0,0-9.43-5.19c-2.54-.89-5.78-.64-8.9-.4s-6.5.51-7.49-.72c-.53-.64-.53-2,0-3.8a25.39,25.39,0,0,1,1.71-4.09c1.73-3.53,3.52-7.18.71-12.45a9.8,9.8,0,0,0-7.21-5.49,8.68,8.68,0,0,0-7.52,3.07c-4.46,4.86-3.85,11-3.25,16.9.48,4.77.94,9.28-1.23,13a13.28,13.28,0,0,0-4.72-4.43c-2.29-1.19-5.92-1.86-10.24,1.71-1.54,1.28-2.27,4.51-3.34,9.67l-.05.28c-.09.42-.18.86-.27,1.3l-1.51.31a17.14,17.14,0,0,0,.87-4.94,44.19,44.19,0,0,0-1.1-9.3,39.77,39.77,0,0,1-1-9.88l.09-1.79c.24-5.17.49-10.51,3.39-14.53a25.32,25.32,0,0,1,5.5-5c2.45-1.85,5-3.76,6.4-6.4a1.37,1.37,0,0,0,.09-1.12,1.38,1.38,0,0,0-.77-.82,6.53,6.53,0,0,0-4.21-.19,5.3,5.3,0,0,0-.28-4.36c-.58-.92-2.07-2.29-5.47-1.16-3.15,1-5.6,6-7.23,9.3-.25.52-.47,1-.67,1.34a77.15,77.15,0,0,0-7.68,21.55c.11-4.08.16-8.44.16-13.23v-1.33a117.29,117.29,0,0,1,.85-17.52,35.7,35.7,0,0,1,1.29-4.6c1.38-4.32,2.95-9.21,1.24-12.23a1.4,1.4,0,0,0-2.31-.17,17.5,17.5,0,0,0-2.05,3.43l-.09-.26-.05-.16c-1.21-3.63-2.45-7.39-5-7.75-3.91-.55-4.6,4.1-5,7.18-.1.73-.21,1.48-.35,2.11a14.6,14.6,0,0,0-2.58-.76,14.23,14.23,0,0,1-1.64-.45,1.39,1.39,0,0,0-1.43.29,1.37,1.37,0,0,0-.39,1.4,38.14,38.14,0,0,0,4.82,9.61c2,3.16,4,6.43,4.88,10.13a103,103,0,0,1,2.26,23.89c0,.7,0,1.52,0,2.44.11,6.25.32,17.87-3.94,20.44-1.16.71-2.75.65-4.7-.19.33-.25.66-.53,1-.83,5-4.44,7.14-13.68,4.73-20.18A10.87,10.87,0,0,0,259.73,181h-.2c-3.78,0-6.37,1.92-7.29,5.41-1.65,6.21,2.37,17.08,6.91,22.33a8.58,8.58,0,0,1-2.93-.84,13,13,0,0,0-5.87-1.25,7.85,7.85,0,0,0-2.72.69c.69-7.57-.07-16.68-.57-22.81-.13-1.54-.23-2.76-.27-3.6-.06-1.07-.13-2.21-.2-3.39-.37-6.13-.79-13.07.36-18.3.75-3.38,3.09-6,5.36-8.57,2-2.31,4.14-4.69,5-7.59a1.39,1.39,0,0,0-1.29-1.8,11.74,11.74,0,0,0-4.64,1.09,6.94,6.94,0,0,1-3.18.78,20.21,20.21,0,0,0,1.3-9.18,1.39,1.39,0,0,0-.71-1,6,6,0,0,0-5.48-.52c-3.16,1.38-4.84,5.7-5.69,9.08-1.77,7-1.37,15-1,22.76.22,4.42.45,9,.24,13.16-.09,1.93-.2,3.82-.31,5.69v.19c-.61,10.32-1.18,20.07.9,30.7-.31-.24-.62-.47-.94-.69a11.8,11.8,0,0,0-3.36-2.21,14.18,14.18,0,0,0-2.2-.82c-4.29-2-7.67-3.62-7.65-8.63a26.07,26.07,0,0,1,.89-4.84c1-4.17,2.16-8.91.16-12.1-.15-.24-.31-.47-.47-.69-.38-2.52-1.39-4-2.94-4.23a4.07,4.07,0,0,0-3.28,1.27c-4.14.17-8.06,3.32-9.81,6.36-1.65,2.87-1.77,6-1.89,9a20.47,20.47,0,0,1-.88,6.3,9.65,9.65,0,0,1-.5,1.1,31.7,31.7,0,0,1-4.16-2.37,24.81,24.81,0,0,0-6.06-3.14,26.89,26.89,0,0,0-7.61-.73c-3.3,0-6.41,0-9-1.46a8.18,8.18,0,0,1-3.33-4,7,7,0,0,0,1-1,1.39,1.39,0,0,0,0-1.78c-.65-.76-1.38-1.52-2.27-2.4a24.77,24.77,0,0,1-.15-3c.05-4.9,1.57-9.09,3.69-10.19a3.25,3.25,0,0,1,3.21.32,12.9,12.9,0,0,1-1.49,4.86c-1.17,2.57-2.5,5.48-1,9.53a11.48,11.48,0,0,0,6.9,6.82,8.1,8.1,0,0,0,7.1-1,12,12,0,0,0,5.13-8.77,23.09,23.09,0,0,0-5-16.8,18.16,18.16,0,0,0-13.81-6.13,15,15,0,0,0-8.5,2.82c-6.6-2.35-23.25,4.21-31.81,12.48-.64-4.32-2.48-8.05-5-10.06a9.5,9.5,0,0,0-7.6-2,11.67,11.67,0,0,0-7.82,5.4c-1.88,3-1.83,6.25-1.77,9.43a17.68,17.68,0,0,1-.62,6.32c-1.78,4.84-10.19,12.26-15.14,12.26a2.9,2.9,0,0,1-2.94-2.26c-.12-.33-.22-.67-.32-1l.24-.29c1.46-1.68,4.12-2.27,6.69-2.84,2.93-.64,6-1.31,7.65-3.65,2.49-3.43,1.35-7.77.35-11.59a21.34,21.34,0,0,1-1-5.74c.19-5.49,2.14-10.2,4.2-15.2a107.44,107.44,0,0,1,5.23-10.39c3.07-5.6,6.24-11.39,7.6-17.59.09-.41,2.17-10.08-1.15-13.8a4.4,4.4,0,0,0-3.87-1.44c-4.57.46-4.86,6.91-5.1,12.09a24.39,24.39,0,0,1-.35,4c-1.85,7.28-5.93,13.38-10.26,19.84a115.51,115.51,0,0,0-7.29,11.91c-4.49,8.9-8,24.47-5.94,34.19-2.29,3.87-2.53,9.29-2.72,13.65l0,1.1c-.25,5.36-.1,11,0,16.4s.29,11.14,0,16.49c-5.79,3.42-7.91,9.2-7.33,19.93A96,96,0,0,0,85.33,277c1.35,6.59,2.63,12.81,2,19-.73,6.57-2.77,13.24-4.75,19.7l0,.18c-.5,1.63-1,3.29-1.49,4.95-1.79-.28-3.68-.48-5.37-.65-2.31-.24-4.49-.47-6.46-.87a66.62,66.62,0,0,0-36.33,2.74c-8,2.83-26.89,20.52-30,26.29a1.39,1.39,0,0,0,2.46,1.3c2.76-5.19,21.22-22.43,28.42-25,12-4.21,23-5.05,34.86-2.64,2.1.43,4.45.67,6.74.91,1.62.17,3.29.34,4.87.58-.22.78-.42,1.56-.62,2.34l-.06.22c-1.14,4.48-3.5,13.79.48,17.53a5.39,5.39,0,0,0,5.39,1.5c3.32-.95,6-5,6.93-8.55,1.21-4.58.92-8.07-.88-10.68-1.51-2.18-4-3.62-7.73-4.53.48-1.63,1-3.25,1.47-4.86,2-6.57,4.09-13.36,4.84-20.19.73-6.61-.65-13.34-2-19.85a92.77,92.77,0,0,1-2.12-13.68c-.47-8.69.74-13.34,4.3-16.29,0,.42-.09.84-.13,1.26-.18,1.61-.37,3.18-.56,4.77-1.27,10.7-2.37,19.94,0,31.27,1.39,6.5,2.49,11.64,1.57,18.59-.08.61-.44,1.91-.81,3.29-1.62,6-2.93,11.54-1.21,14.15a3.24,3.24,0,0,0,2.3,1.45,4.24,4.24,0,0,0,3.26-.93c4.71-3.62,6.72-17.38,8.52-32.37a74.21,74.21,0,0,1,1.34-9c.54-1.5,2-5,3.65-4.72,4.33.59,10,16.78,10.38,22.19.31,4-.75,6.82-2,10.05a42.78,42.78,0,0,0-1.91,5.91c-1.43,6.27.35,7.62,3.22,9a11.54,11.54,0,0,1,3.32,2.1,1.43,1.43,0,0,1-.54.17,6.26,6.26,0,0,0-1.94.66c-.61.32-1.07.22-2,0a5,5,0,0,0-5.21,1c-2,1.71-2.39,5.34-2.67,7.77,0,.29-.06.56-.1.81-1.28,9.85-.06,15.67,3.62,17.29a3.66,3.66,0,0,0,3,0c4.09-1.78,7.49-10.73,11.2-21.37a73,73,0,0,1,2.73-7.19c1.14-2.16,2.33-4.22,3.49-6.25,4.73-8.26,9.2-16.06,8.59-27.22A103.38,103.38,0,0,0,136,260.27a124.32,124.32,0,0,1,4.73-17.62c1.32-3.76,3.07-7.51,4.76-11.13,2.62-5.6,5.32-11.39,6.62-17.54a27.26,27.26,0,0,0,.81-8.2,7,7,0,0,0,1.26-1.52,13.14,13.14,0,0,0,1.22-10.08,9.19,9.19,0,0,1,2.74-1.34c1.55-.46,3.71-.08,6,.33,2.54.45,5.4,1,7.85.24a10.67,10.67,0,0,0,4.47,5.17c3.25,1.77,6.86,1.78,10.36,1.79,1.48,0,2.91,0,4.26.14-4.7,3.09-7.12,13-5.08,17.11a1.4,1.4,0,0,0,.9.73,1.38,1.38,0,0,0,1-.1c-.5,1.49-1,2.89-1.41,4.11l-.05.14c-1.76,5-3.27,9.39-3.53,11.73-.73,6.79-1.15,8.48-7.65,10.76-5.22,1.83-13.22,3.6-18.66,3.22,2.27-8.38,4.24-17.52,1.89-22.28-.49-1-2-4-4.52-3.53-4.62.89-6,13.86-6,14-.06.87-.14,1.69-.22,2.51-.49,5.3-.92,9.88,5.32,11.56l-.53,1.87a95.22,95.22,0,0,0-2.58,10.32c-2.09,14.05,0,27.27,2.11,40.06,1.48,9.18,3,18.66,3,28.48,0,5-.22,10.05-.43,14.95-.3,7-.61,14.33-.29,21.43.21,4.56.86,10.91,4.07,13.26a4.71,4.71,0,0,0,4.13.7,5.85,5.85,0,0,0,3.67-3.56c2-4.45,1.81-11.94.58-14.48a11,11,0,0,0-3.36-3.46c-1.36-1.07-2.76-2.16-3-3.26-.34-1.91.48-2.68,2-4.08a15.52,15.52,0,0,0,2.47-2.77c4.13-6.27,5.27-13.47,6.38-20.44l0-.2q.43-2.7.89-5.43l.06-.41c.2-1.23.41-2.45.61-3.68.91,5.63,1.88,11.22,2.65,15.57s1.42,8,1.59,9.55-.24,5.15-.67,9c-1.26,11.05-2.68,23.58,3.3,24.27a6.83,6.83,0,0,0,6.12-1.92c4-4.27,2.25-14.32,1.07-21a29.54,29.54,0,0,1-.64-4.64,14.26,14.26,0,0,1,.28-1.58c.7,3.11,1.74,5.38,3.08,6.75a5,5,0,0,0,3.71,1.59,1.4,1.4,0,0,0,1.13-.64c2.17-3.32,3.85-11.35,3.93-18.74a15.46,15.46,0,0,0,2.22-.95l1-.51a30.09,30.09,0,0,0,7.69-5.89c7.7-1.54,16.69-6.58,23-10.66,0,.43,0,.88-.07,1.33v.07c-.33,5.65-.72,12.05,1.87,15.16,3.35,4,5.72,2.15,7.29.91a5.2,5.2,0,0,1,2.11-1.23c.27,1.22.55,2.38.81,3.41l.06.24c-1.11,2.62-3.11,5-5.22,7.45-4.44,5.22-9.46,11.14-5.66,20.57a1.41,1.41,0,0,0,1,.85c3.82.7,9.15-1.1,12.89-13.63,1.78-6,1-10.19-.14-15.06a13.1,13.1,0,0,0,.76-4.48,1.38,1.38,0,0,0-.71-1.2,8.56,8.56,0,0,0-1.47-.66c-1.3-9.18,3.11-19.05,7-27.77,1.09-2.43,2.11-4.72,3-7,.46-1.14,1-2.73,1.6-4.61,1.65-5,5.08-15.5,8.2-15.67,1.29-.08,3,2,4.59,5.55,4.5,9.9,4.49,23.63,0,32.66-.48,1-1.43,2.45-2.54,4.17a85.36,85.36,0,0,0-6.07,10.57l-.5-.55a1.39,1.39,0,0,0-1.64-.32c-6.42,3.13-8,20.65-6.89,26.91a1.4,1.4,0,0,0,1.09,1.12c6.05,1.25,9.16-5.89,11.44-11.11l.42-1a1.35,1.35,0,0,0,.75-.44,6,6,0,0,0,1.61-4c2-3,4.27-6,6.51-8.8,3.39-4.3,6.89-8.74,9.36-13.69.22,1.58.48,3.24.78,5.17,1.34,8.37,3,18.23,4.92,27.86q.27,1.29.54,2.55l0,.12a52.79,52.79,0,0,1,1.58,11.29,37.16,37.16,0,0,1-.4,4.48c-.48,3.69-1,7.52.7,11a1.39,1.39,0,0,0,.87.74,1.42,1.42,0,0,0,1.12-.16c6.56-4.13,8.85-17.62,7.48-24.74a1.12,1.12,0,0,0-.1-.31,31.16,31.16,0,0,0,1.5-7A155.85,155.85,0,0,1,304,367.5c0,.47-.11,1.67-.24,3.06v.09c-.94,10.29-.74,13.36.93,14.31a4.67,4.67,0,0,0,2.29.64,4.52,4.52,0,0,0,2.45-.76c3.72-2.37,5.94-10.47,5.73-13.18-.31-4-2.58-5.66-4.39-7-1.62-1.18-2.28-1.72-2.06-3.24a17.06,17.06,0,0,1,2.13-1.89,13.53,13.53,0,0,0,2.84-2.68,17.36,17.36,0,0,0,2.28-6.09c.21-.89.42-1.81.73-2.78,4.75-15.12,9.1-31.2,5.75-47.29l.38.52c3.51,4.73,11.8,10.74,18.25,9.75a8.68,8.68,0,0,0,6.19-4.27,12.66,12.66,0,0,1,.12,1.56,1.37,1.37,0,0,0,.41,1.05.34.34,0,0,0,.09.08c.41,5.28,1,10.55,1.62,15.65v.08c.81,6.88,1.64,14,2,21.05a45.44,45.44,0,0,1-.62,5.69c-.22,1.56-.5,3.6-.73,5.6a8.74,8.74,0,0,0-.61,1.76,1.42,1.42,0,0,0,.31,1.22c-.64,7.59.07,11.85,2.3,13.82a4.85,4.85,0,0,0,4.74.87c2.93-.8,4.83-5,5.71-7.49,1.48-4.17,2.28-9.76.53-12.2l-.1-.14c3.1-7.71,3.47-20.29,3.72-28.68.1-3.09.17-5.53.35-6.77A115.65,115.65,0,0,1,370,308.51c.86-3,1.83-6.38,2.73-9.76.44,2.59,1,5.62,1.56,8.52,1.67,8.3,2.29,16.42,2.94,25,.24,3.07.48,6.24.77,9.39.14,1.51.31,3.11.48,4.74.27,2.66.58,5.67.77,8.33a8.38,8.38,0,0,0-.71,1.65,1.41,1.41,0,0,0,.17,1.18,8.76,8.76,0,0,0,.72,1c0,1.1-.06,2.3-.14,3.59-.24,4.23-.52,9,1.77,12.42,1.79,2.65,3.7,3.87,5.68,3.61,2.2-.29,4.05-2.39,5.35-6.09,1.84-5.23,2.29-13.33-.13-17.41.18-.34.35-.68.49-1,1.49-3.49,1.27-7.77,1.05-11.92a47.38,47.38,0,0,1-.07-6.15,63.43,63.43,0,0,1,2-10.89,94.79,94.79,0,0,0,11.42-14.63,31.73,31.73,0,0,0,3,9.05c4.18,7.06,8.36,8,11.14,7.46,6-1.07,10.2-9.3,11.52-16.48,1.8-9.81.89-23.2-2.31-34.11a17.13,17.13,0,0,0-6.68-8.92c4.79-5.86,4.51-13.95,4.23-21.78-.09-2.61-.18-5.08-.08-7.41a48.53,48.53,0,0,0,4.58,2c2.82,1.16,6,2.47,7.66,4-.48,5.18-.17,9.23.95,12.37-.46,2.09-1,4.19-1.5,5.81a5.67,5.67,0,0,0-3.05,2.31,4,4,0,0,0-.3,4.05,4.49,4.49,0,0,0,1.14,1.4,31.07,31.07,0,0,0-1,4.95,104.65,104.65,0,0,0,.24,16.36c.44,6.32.84,12.28-.07,18.44-.42,2.78-.92,5.51-1.4,8.15a125.3,125.3,0,0,0-2.33,17.63c-.24,5.72.8,12.76,4.53,13.77,2.53.69,5.11-1.48,7.87-6.65a31.33,31.33,0,0,0,2.92-9.8c4.11-4.57,8.53-13.56,11.29-20.47a112.27,112.27,0,0,0,4-11.87,56.11,56.11,0,0,0,7.34,9.2c3,2.88,4.31,5.34,3.93,7.33s-2.3,3.7-6.09,5.58a5.94,5.94,0,0,0-1.68-1,1.41,1.41,0,0,0-1.5.31,5.92,5.92,0,0,0-1.48,2.79l-1.07.44-1.46.6c-6.74,2.82-6.39,6-4.93,12.83.08.4.17.94.28,1.57l0,.19c1.11,6.47,2.52,12.8,6.49,13.07s7.13-3.31,8.61-9.83a28,28,0,0,0,.55-3.26c2.75-.45,5.56-2.65,8-4.6l.29-.22c8.82-6.91,16.86-14.79,15.86-25.64-.85-9.29-7.56-20.19-12.46-28.15l-.57-.93a50.09,50.09,0,0,0-7.74-10.12,19.3,19.3,0,0,0,4.5-8,62.48,62.48,0,0,0,3.16-21.47c1.86-1.74,3.59-3.4,5.12-4.86l.16-.16c2-1.9,3.55-3.4,4.66-4.37a45,45,0,0,0,6.68-7.4c1.24,4.65,1.27,13.61,1.29,19.06a77.3,77.3,0,0,0,.27,8.47c.32,2.2.65,4.29,1,6.31l0,.1a9.07,9.07,0,0,0,.25,1.57,136.68,136.68,0,0,1,1.77,15.4c-4.08,1.18-6.71,3.1-8.28,6a1.38,1.38,0,0,0,.61,1.9,20,20,0,0,0,7.58,1.88,134.13,134.13,0,0,0,2.22,32.21c1.82,9,2.42,17.21,2.84,28.26,0,.69,0,1.53,0,2.33,0,4.09,0,9.19,2.67,11.94.12.11.24.23.36.33a26.39,26.39,0,0,0-1.74,11.49c.37,6.42,2.56,11.24,5.86,12.9a1.41,1.41,0,0,0,1.49-.15c8-6.25,6.24-17.79,5.32-24-.09-.6-.17-1.19-.25-1.78a6.37,6.37,0,0,0,.31-1.48,1.39,1.39,0,0,0-.65-1.31,98.43,98.43,0,0,1-.09-20.89c.44-4.73,1.2-9.49,1.93-14.11.63-4,1.28-8.08,1.74-12.2.08-.71.22-1.54.37-2.35a46.28,46.28,0,0,1,3.34,9.57,95.92,95.92,0,0,1,1.18,14.36c.18,5.79.37,11.78,1.83,17.6l.22.89c1,4,2.2,9,6.3,11.32-.31,4.8.63,11.19,1.6,16.81.18,1,.3,1.75.36,2.17a1.33,1.33,0,0,0,.35.77,28.86,28.86,0,0,0,3.16,2.37,1.37,1.37,0,0,0,1.53,0c8.63-5.69,6.64-19.35,5.19-29.32-.24-1.6-.48-3.25-.63-4.65-.83-7.61-1.6-15.24-2.37-23.27.69,1.12,1.47,2.27,2.34,3.44,2.67,3.55,5.43,6.69,8.1,9.73,2.85,3.25,5.54,6.32,8,9.75a4.54,4.54,0,0,0,0,1.88,3.17,3.17,0,0,0,2.84,2.43c.41.68.81,1.37,1.18,2,.27.49.62,1.26,1,2.09,1.9,4.13,4.5,9.77,8.44,9.17a4.6,4.6,0,0,0,3.13-2.12c2.75-4,2.26-12.95,1.59-16-.78-3.55-2.57-6.37-4.91-7.74a7.28,7.28,0,0,0-1.76-.73c-1.35-4.91-4.31-10.33-6.47-14.29a43.77,43.77,0,0,1-2.58-5.13,15.74,15.74,0,0,1-.41-8,95.16,95.16,0,0,0,3.33,9.14c4.4,10.22,10.12,14.78,18,21.11l.55.43c2.08,1.67,3.66,3,5.08,4.29a4.7,4.7,0,0,0,.76,2.44,3.44,3.44,0,0,0,2.82,1.43c.47.6.91,1.21,1.35,1.86a25.56,25.56,0,0,1,1.68,3.23c1.24,2.65,2.41,5.16,4.67,5.31,1.59.13,3.15-1.07,4.87-3.73,2.28-3.52,2.25-11.86,0-18,.32,0,.63,0,.93,0,7.07-.59,12.21-7,17.19-13.25,3.09-3.87,6-7.52,9.13-9.43,3.8-2.34,9-1.74,14-1.16,7.29.85,14.82,1.73,19.19-5.88A1.39,1.39,0,0,0,672.55,307.21Zm-92.88,34.91a9.27,9.27,0,0,1,3.28,5.73c.6,2.75.93,10.77-1.16,13.83a2,2,0,0,1-1.27.94c-1.85.29-4.39-5.2-5.46-7.54l0-.06c-.39-.86-.76-1.67-1.08-2.25l-.55-1a7.84,7.84,0,0,0,5.55-4.15A10.08,10.08,0,0,0,579.67,342.12Zm-9.2,5.07c.8-2.13,3.09-5.05,4.81-5.59a6.67,6.67,0,0,1,1.47-.28,8.41,8.41,0,0,1-.31,5.12c-.71,1.48-2.17,2.4-4.48,2.81l-.1,0C571.42,348.58,571,347.88,570.47,347.19ZM522.15,163.26c-.12.55-.24,1.12-.35,1.69A1.43,1.43,0,0,0,522,166a1.38,1.38,0,0,0,.92.58,15.13,15.13,0,0,0,6-.17,117.21,117.21,0,0,0-13.67,19.23c0-2.48-.68-3.37-1.34-3.86a2.6,2.6,0,0,0-.45-.28A51.52,51.52,0,0,0,518,170.65c.3-1.15.53-2.54.77-4,.57-3.44,1.28-7.72,3.15-9.59.34-.34.65-.69,1-1.06A21.69,21.69,0,0,1,522.15,163.26Zm82.28,181.18a4.31,4.31,0,0,1-2.74,2.71l-.38.12c-.61-.71-1.26-1.39-2-2.1a18.29,18.29,0,0,1,2.94-7.58,9.85,9.85,0,0,1,2-2l.19.13C605.26,339.19,605.25,342.36,604.43,344.44Zm-32-61.6a7,7,0,0,1,.43,2.37c0,.4.06.83.11,1.29.55,4.92-1.27,9.81-3.08,14.54C568.83,294.76,568.53,286.88,572.44,282.84Zm0,19.46c2-5.13,4-10.43,3.35-16.11,0-.43-.08-.82-.11-1.19a7.49,7.49,0,0,0-1.87-5.16,1.39,1.39,0,0,0-1.86-.21c-7.22,5.2-6.08,17.23-3.84,26.44-1.35,4.1-2.49,9-.76,14.17a43.62,43.62,0,0,0,2.78,5.59A78.07,78.07,0,0,1,576,338.6a9.43,9.43,0,0,0-1.59.34c-2,.61-4.39,3-5.86,5.69-2.23-2.92-4.58-5.6-7.08-8.45-2.64-3-5.36-6.11-8-9.58-3-4-4.7-7.45-5.42-11-.11-1.25-.22-2.52-.34-3.79l-.08-1a67.61,67.61,0,0,1,.87-8.61c.24-1.72.52-3.68.75-5.81.94-8.43-1.07-14.72-4.38-21.56a54.14,54.14,0,0,0-1.61-9.38,30.61,30.61,0,0,0,3.82-12c.4.7.76,1.44,1.12,2.16,1.09,2.2,2.21,4.48,4.61,6.16,4.33,3,10.08,2.51,15.66,2,6.11-.57,12.43-1.15,17,2.87a11.07,11.07,0,0,1,2.17,2.67l-.41,1.86c-1.09,4.88-2.2,9.93-2.93,14.9-1.8,12.2-1.35,22.84,6.63,35.14a59.39,59.39,0,0,0,11,12.57,13.87,13.87,0,0,0-1.89,2,21.22,21.22,0,0,0-3.18,7.06c-1.21-1.05-2.5-2.09-3.72-3.06l-.55-.44c-7.88-6.3-13.09-10.46-17.21-20A89,89,0,0,1,571,306.15C571.42,304.86,571.92,303.56,572.4,302.3Zm-48.14-19.37a1.42,1.42,0,0,0-.89.79c-2.52,6-.72,12.16,1.61,17.91-.11.57-.22,1.11-.33,1.66-.38,1.94-.71,3.61-.86,5-.46,4.06-1.1,8.13-1.73,12.1-.74,4.65-1.5,9.45-2,14.26a101.78,101.78,0,0,0,0,20.2,6.09,6.09,0,0,0-4.1.95,7.94,7.94,0,0,0-1.9,1.82c-1.71-2-1.7-6.49-1.69-9.76,0-.83,0-1.7,0-2.45-.34-8.94-.84-18.52-2.89-28.7a131.36,131.36,0,0,1-2.16-31.63c12.07-.45,25.5-7.81,32.23-14.66l.48.93c.78,1.51,1.52,2.94,2.21,4.35l.09.84c.6,6.26,1,12.76,1.47,19v.15c.34,5.08.69,10.33,1.14,15.46a24.91,24.91,0,0,0,.41,4.6c1,11.58,2.1,22.26,3.23,32.66.16,1.42.39,3,.64,4.75l0,.24a8.08,8.08,0,0,0-1.41-.74c-2.18-.92-4-.81-5.43.32a6.8,6.8,0,0,0-2.18,3.9c-2.37-2-3.3-5.83-4-8.91l-.22-.9c-1.39-5.54-1.57-11.37-1.75-17A97.67,97.67,0,0,0,533,315.28a53,53,0,0,0-3.81-10.84c-.45-1-.9-2.06-1.32-3.1,1.43-7.65,2.12-15.14-2.43-18.23A1.41,1.41,0,0,0,524.26,282.93Zm-5.1,76.34a4.22,4.22,0,0,1-2.79-.12,5.22,5.22,0,0,1,1.13-1,3.39,3.39,0,0,1,2.9-.39l.06.47A2.34,2.34,0,0,1,519.16,359.27ZM515,361.6a7.07,7.07,0,0,0,5.09.29,5.66,5.66,0,0,0,.83-.37c1,7.18,1.59,15.14-3.66,20-2-1.62-3.32-5.45-3.59-10.08A23.63,23.63,0,0,1,515,361.6Zm-9.72-110.24-.15-2.66a67.27,67.27,0,0,1,.11-13.39,54.75,54.75,0,0,1,1.61-6.8,44,44,0,0,0,1.95-9.72,85.26,85.26,0,0,0-.27-10.27l.62-1.47c-.21,4.16.11,9.35,2.35,13.08a9.58,9.58,0,0,0,7.28,4.79c4.64.61,8.55-1.9,10.82-6.91-.05,1.66-.24,3.4-.43,5.1v.07c-.09.82-.18,1.63-.25,2.42a1.39,1.39,0,0,0,1.21,1.51,19,19,0,0,0,4.35,0,14.11,14.11,0,0,1,2.2-.07,20.4,20.4,0,0,0-2.46,6.92c-5.43,4.59-3.42,14.84-.69,22.78a21.18,21.18,0,0,0-8.11,2l-1.22.52-.22.1c-4.52,2-8.43,3.66-13.49,2.84-3.54-.57-4.5-1.52-4.9-2.87l-.24-1.5c0-.76,0-1.66,0-2.7S505.35,252.74,505.28,251.36ZM511,186.59c.41-.86.83-1.7,1.25-2.51l.12,0c.17.32.76,2.17-1.39,9.61-.93,3.2-2,6.32-2.8,8.37A31.9,31.9,0,0,1,511,186.59Zm17.64,20.35a11.35,11.35,0,0,0-2.62-1.73,14.31,14.31,0,0,0-5.08-.8c-4.29-.24-7.6-.61-7.87-2.95a3.33,3.33,0,0,1,1.66-3.61,8.16,8.16,0,0,1,4-.88,11.35,11.35,0,0,1,6.23,1.68C527,200.16,528.27,203.16,528.6,206.94Zm-9.46,15.22a6.88,6.88,0,0,1-5.26-3.46c-1.74-2.91-2.38-7.72-1.8-13.59,2.15,1.72,5.74,1.92,8.67,2.08a14.38,14.38,0,0,1,4,.52,7.83,7.83,0,0,1,3.78,3.66,19.35,19.35,0,0,1-1.22,4.93C526.3,218.76,523.92,222.79,519.14,222.16Zm25.35,22.52c.07.77.11,1.55.14,2.32l-1.21-.84-.15.2.09-.24a24.07,24.07,0,0,1-3.62-2.82,18.69,18.69,0,0,0-2.64-9.61l0,0a18.86,18.86,0,0,1,2.2-5.59,8.31,8.31,0,0,1,.83.71,9,9,0,0,1,2,3.57C541.5,236.26,542.27,240.3,544.49,244.68Zm47-65.15c2.67,1.39,4.72,5.9,5.64,12.38,1.43,10.08-.31,22.15-3.65,25.33A5.61,5.61,0,0,1,590.3,219a16.88,16.88,0,0,1-1.07-6,56.15,56.15,0,0,1,1.12-7.66c1.68-9.3,3.78-20.87-.89-23.82a5.51,5.51,0,0,0-3-1,4.63,4.63,0,0,0-3.72,2.05l-.36.52-.41-.33c-2.2-1.61-6.19-2.54-12.74,2.18l-.08.06a19.91,19.91,0,0,1,6.2-5.38A16.61,16.61,0,0,1,591.48,179.53Zm-5,33.51a22.46,22.46,0,0,0,.31,3.6c-1.64-2.44-2.93-6.47-3.65-11.55a22.34,22.34,0,0,0,1.24-3c2.07-6.18,2-12.67-.07-16.58a6.55,6.55,0,0,1,.71-1.22c.85-1.12,1.68-1.24,3-.42,3.07,1.95.83,14.33-.38,21A53.44,53.44,0,0,0,586.45,213Zm-3.9-14.94a45.71,45.71,0,0,1,.39-7.44A23,23,0,0,1,582.55,198.1Zm-11.66-10.86c2.86-2.07,6.83-4.12,9.45-2.19a4.1,4.1,0,0,1,.85.82c-1.48,4.54-1.84,11.67-.94,18.67-2,3.49-4.71,5.07-7.67,4.46-3.66-.76-7.55-5.23-7.57-12A14.39,14.39,0,0,1,570.89,187.24Zm10,21.19c1.14,5.57,3,9.74,5.31,11.79a6.55,6.55,0,0,0,2.19,1.31,25.77,25.77,0,0,0,5.07,6.54c2.88,2.88,6.8,5.12,10.58,7.29,5.05,2.89,9.82,5.62,11.17,9.31l0,.12c.93,2,.31,5.2,0,7-.1.51-.19.95-.22,1.29a29.85,29.85,0,0,1-.71,3.74c-.15.66-.34,1.49-.49,2.26l-.28,1.46c-1.47,7.59-3.3,17,1,23.95a17.76,17.76,0,0,0,1.31,1.69c3,3.62,2.84,4.37,2.72,4.51a1,1,0,0,1-.86.33c-2,0-5.13-2.33-6.19-3.52a1.37,1.37,0,0,0-1-.47,1.47,1.47,0,0,0-.54.1,1.4,1.4,0,0,0-.85,1.37,7.54,7.54,0,0,0,.59,2.19c-.27-.47-.53-1-.76-1.44-.34-.66-.66-1.28-1-1.85-.65-1.05-1.47-2.12-2.63-2.12l-.26,0a1.86,1.86,0,0,0-1.18.63c.66-1.73,1.54-3.55,2.12-4.76a17.54,17.54,0,0,0,1.67-4.07c3-23-3.54-36.82-10.91-39.87a8.1,8.1,0,0,0-6.51,0,7.63,7.63,0,0,0-4.59-2.31c-5.66-.65-12.63,5-14,14.39-.62,4.26.48,9,2.58,11.36-2,.05-4,.24-6,.42-5.3.5-10.31,1-13.8-1.49-1.82-1.28-2.74-3.15-3.72-5.13a18.39,18.39,0,0,0-3.34-5.17V249c3.47,3.74,9.49,7.72,12.16,6.17s.21-5.82-.6-7.23c-1.36-2.37-3.47-3.88-5.51-5.35-2.91-2.09-5.21-3.75-4.85-7.35.17-1.63,3.24-5.52,5.71-8.64,4.8-6.07,7.66-9.92,6.16-12.44a2,2,0,0,0-.25-.35,17.83,17.83,0,0,0,3.66-9c1.76,3.61,4.8,6.22,8.1,6.9A9.19,9.19,0,0,0,580.88,208.43Zm5.18,32.24c-2.06,2.68-2.64,5.83-3.2,8.88a20.59,20.59,0,0,1-2.09,6.9c-1.32,2.2-2.66,3.32-3.59,3-1.74-.62-3.39-5.34-2.76-9.76,1.08-7.44,6.2-12,10.32-12a5.68,5.68,0,0,1,.59,0,4.72,4.72,0,0,1,2.53,1.08A12.29,12.29,0,0,0,586.06,240.67Zm-29.47,8.66a9.14,9.14,0,0,1,1.44,3.45h0c-1.57,0-7.89-3.78-10.24-7.85-.2-.35-.39-.7-.58-1.05-.13-1.42-.32-2.85-.57-4.26,1.14,2.29,3.27,3.82,5.23,5.24C553.67,246.15,555.53,247.48,556.59,249.33Zm30.76,15.3a15,15,0,0,0-6.89-3.47,12,12,0,0,0,2.7-3.29,22.8,22.8,0,0,0,2.44-7.82c.52-2.84,1-5.54,2.66-7.68a10,10,0,0,1,1.27-1.38c1.16,2.41,1.59,6,1.22,10.36a117.76,117.76,0,0,1-2.29,14.39A11.63,11.63,0,0,0,587.35,264.63Zm-51.89-10.95c-1.47-4.85-2.71-11-1.19-15a12.08,12.08,0,0,0,.46,1.72,13,13,0,0,0,2.25,4A35.06,35.06,0,0,1,535.46,253.68Zm-28,23.68c1.81-.36,3.79-.62,5.71-.86C519,275.75,525,275,529,271a35.21,35.21,0,0,0,6.33-9.34c.85,2,1.61,3.66,2.11,4.69.24.49.48,1,.73,1.45-6.25,6.79-19.37,14-30.78,14.51C507.49,280.62,507.5,279,507.47,277.36Zm32.82-12.21-.16.23-.15-.29c-.53-1.1-1.06-2.24-1.56-3.41A11.49,11.49,0,0,1,540.29,265.15Zm1.71-3.07a9.84,9.84,0,0,0-3.7-4.12,9.13,9.13,0,0,0-1.13-.56,42,42,0,0,0,2.45-10.52c.71.54,1.45,1,2.19,1.55.94.64,1.9,1.3,2.81,2A31,31,0,0,1,542,262.08Zm4.6,33.78,0-.41c-.23-3.46-.47-7-.75-10.58A30.59,30.59,0,0,1,546.6,295.86Zm46.69,23.9c-6.51-10-8.25-19.34-6.21-33.21.6-4.11,1.48-8.27,2.41-12.52,1.4,5.57,1.06,12.5.75,18.66-.11,2.32-.22,4.52-.22,6.47,0,.82,0,1.63,0,2.44,0,5.29-.1,10.29,2.08,15.24,1.39,3.15,3.66,5.62,5.85,8a33.7,33.7,0,0,1,4.67,5.9A57.59,57.59,0,0,1,593.29,319.76Zm-41.12-94.89c-3.25,4.11-6,7.65-6.3,10.1,0,.15,0,.3,0,.45-.23-1-.5-2.12-.83-3.17,1.29-6.55,7.09-11.58,12.92-16.18l.24-.19C558,217.47,553.67,223,552.17,224.87Zm-8.89,3.45a8.41,8.41,0,0,0-1.26-1.56,15.34,15.34,0,0,0-1.22-1c3.36-4.62,8.35-8.39,12.79-9.74C549.55,219.36,545.36,223.41,543.28,228.32ZM510,264.94c5.87.95,10.34-1,15.07-3l1.4-.61a19,19,0,0,1,6.78-1.77,33.22,33.22,0,0,1-6.21,9.47c-3.34,3.34-8.88,4.06-14.25,4.74h-.06c-1.79.23-3.63.47-5.39.81-.21-4.06-.69-7.79-1.1-10.69A14.18,14.18,0,0,0,510,264.94Zm36.74,90.28c1.31.55,1.44,1,1.45,1s-.14.36-.7.76a7.67,7.67,0,0,1-4.7,1.11,4.74,4.74,0,0,1,1.33-2.92C544.36,355,545,354.48,546.77,355.22Zm-4.22,5.63a10.16,10.16,0,0,0,6.55-1.6,5.61,5.61,0,0,0,.86-.71c.9,7.55,1.17,16.53-4,20.67-.6-.42-1.21-.87-1.57-1.15-.07-.47-.18-1.06-.3-1.76C543.61,373.23,542.38,366.11,542.55,360.85ZM503.67,229.56a24.81,24.81,0,0,0-1.74-8.07,72,72,0,0,0,4.12-7.49c.05,1.69,0,3.21,0,4.65a42.33,42.33,0,0,1-1.85,9.11l0,.13C504,228.44,503.82,229,503.67,229.56Zm22.23,66.35a18.14,18.14,0,0,1-.66-8.88C526.16,288.85,526.38,291.77,525.9,295.91ZM608,357.83c-.62,0-1.74-2.43-2.34-3.71a28.17,28.17,0,0,0-1.88-3.58q-.33-.5-.66-1a7,7,0,0,0,3.88-4.11,16.28,16.28,0,0,0,.62-7.92,15.56,15.56,0,0,0,1.75.7c2.28,4.73,3.19,13.68,1,17.12C608.78,357.81,608,357.83,608,357.83ZM460,282.27c1,.28,1.72,1.13,2.12,2.6a20.27,20.27,0,0,1,.05,7.94C460,288.31,459.25,284.68,460,282.27Zm11.82-48.21a50.25,50.25,0,0,1,5.32-3.72,10.45,10.45,0,0,1,.7.91C475.53,233,473.51,234,471.82,234.06Zm8.17-4.59c-.14-.2-.29-.4-.44-.58q1.24-.73,2.55-1.44C481.37,228.19,480.67,228.86,480,229.47Zm-9.72,95.25c2.77-1.43,6.37-3.71,7.05-7.28.58-3-1-6.23-4.73-9.85a57.62,57.62,0,0,1-8.35-10.95c1.17-5.39,1.36-9.6.57-12.5-1.07-3.92-3.68-4.75-5.69-4.76a1.39,1.39,0,0,0-1.22.74c-2.5,4.68.47,11.82,3.43,17-2.58,11-8.55,24-13.05,30.67a19,19,0,0,0-1-5.61,9.63,9.63,0,0,0-5.37-6,7.6,7.6,0,0,0-3.64-.71c.37-2.12.66-3.86.9-5.46,1-6.45.53-12.84.1-19.05a102.81,102.81,0,0,1-.25-15.91,26.12,26.12,0,0,1,.71-3.75c3,1.2,7.24,1.73,11,2.1l1,.1c1.07.11,2.12.24,3.2.37,7,.83,13.55,1.61,18.63-1.64a47.28,47.28,0,0,1,7.55,9.83l.57.93c4.76,7.73,11.27,18.31,12.06,26.94.87,9.52-6.6,16.78-14.81,23.2l-.28.22c-2.32,1.81-4.39,3.37-6.11,3.88C472.75,332.16,471.92,327.63,470.27,324.72Zm-25.51,10.41a25.38,25.38,0,0,1-2.11,6.09c-2.42,4.52-4.07,5.44-4.69,5.28-1.19-.33-2.76-4.42-2.48-11a88.33,88.33,0,0,1,.93-9.32c1.65,3.66,4.6,7.63,7.87,8.84a1.36,1.36,0,0,0,.48.09Zm-7-14c-.25-1.61,0-2.46.35-2.73a1.2,1.2,0,0,1,.7-.17,5.72,5.72,0,0,1,2.06.52,6.91,6.91,0,0,1,3.82,4.36,19.24,19.24,0,0,1,.7,8.35c-.26.25-.51.47-.74.66C441.43,330.43,438.31,324.88,437.73,321.16ZM457.25,265c5.82.84,10.29,2.56,14.05,5.38-4.17,2.2-9.68,1.55-16.06.79l-3.19-.37-.9-.09H451c-2.08-.2-7.55-.73-10.57-2,.27-1,.56-1.95.86-2.95l.38-1.31c3.13-.65,8.3-.46,15.36.57Zm16.39,3.69c-4.29-3.44-9.38-5.49-16-6.45l-.19,0c-.87-.13-1.72-.25-2.53-.35,6.43-2.3,14.89-8.29,25.8-18.26a63.26,63.26,0,0,1-3.12,18.13A16.25,16.25,0,0,1,473.64,268.65ZM475.56,151c3.51,1.44,2.83,3.6,1.22,7.62a24.87,24.87,0,0,0-1.21,3.52,1.39,1.39,0,0,0,.45,1.37,1.37,1.37,0,0,0,1.41.24c1.29-.5,1.56-.45,2.24-.06-.57.69-1.15,1.37-1.72,2.05-5.61,6.67-10.91,13-13.22,22-.35,1.42-.91,3.28-1.56,5.43l0,.08c-2.57,8.54-6.09,20.24-4.06,26,1.71,4.87,5.09,5.92,7.68,5.92h.15a11.44,11.44,0,0,0,2.95-.47,28.12,28.12,0,0,0,3.51,2.65c.53.35,1.07.71,1.6,1.1-2.8,1.78-6.18,4.16-7.12,5.82a1.43,1.43,0,0,0-.12,1.11,1.39,1.39,0,0,0,.73.83c2.93,1.4,6.52.57,10.7-2.46a22.28,22.28,0,0,1,1.42,6.2c-15.36,14.24-25.79,20.85-31.87,20.16a5.3,5.3,0,0,1-4-2.45,9.69,9.69,0,0,1-.83-1.53c1.28-6.22,1-10.38-1-13.08a130,130,0,0,1,2.35-12.85v-.06c.32-1.45.62-2.82.85-4,2-10.31,6.18-20.56,10.2-30.47l.24-.6a331,331,0,0,0,10.93-32.88c.23-.82.45-1.74.68-2.72.78-3.35,1.75-7.51,3.95-8.65A4.07,4.07,0,0,1,475.56,151ZM444.29,261.26c-.62,0-1.21.08-1.75.16l.39-1.48A8.9,8.9,0,0,0,444.29,261.26Zm26.32-39.8a12.16,12.16,0,0,1-1-1.35c-2.58-4-4.31-10.61-2-15.78,2.38-5.38,5.57-6.18,7.27-6.18a5.68,5.68,0,0,1,2,.37c3.59,1.36,6.33,6.26,4.3,12.67C480,214.79,475.12,219.54,470.61,221.46Zm28,0a42.63,42.63,0,0,1-7.06,8.09c-1.16,1-2.76,2.55-4.8,4.5-1.09,1.05-2.32,2.23-3.67,3.5a21.85,21.85,0,0,0-1.65-5.67,70.28,70.28,0,0,0,7.5-7.86c5.57-2.48,8.6-3,9.51-2.64Zm-6.15-1.84c3.47-4.89,4.33-10.08,5.17-15.11a45.87,45.87,0,0,1,2.09-8.92,11.21,11.21,0,0,0,.86,3.59,1.38,1.38,0,0,0,.77.75,1.35,1.35,0,0,0,1.06,0,6,6,0,0,0,3.06-3.21A74.05,74.05,0,0,0,505.7,208V208a90.08,90.08,0,0,1-5.61,11.14,3.46,3.46,0,0,0-.72-.36C498,218.31,495.64,218.6,492.43,219.67ZM469.58,340a28,28,0,0,1-.5,2.84c-.41,1.83-2,7.68-5.5,7.68h-.21c-1.4-.09-2.72-3.71-3.93-10.76-.13-.76-.24-1.4-.34-1.87-1.43-6.77-1.43-7.71,3.29-9.68l1.14-.47v.06c.07,3.7,1.52,8.76,3.81,10.85A6.22,6.22,0,0,0,469.58,340Zm.23-3a4.1,4.1,0,0,1-.59-.46c-1.51-1.37-2.84-5.42-2.91-8.84a11.13,11.13,0,0,1,0-1.17l1.39-.61C469.18,328.34,470,332.53,469.81,337Zm34.89-58.93c0,1.37,0,2.77-.05,4.17a18.33,18.33,0,0,1-5-1A10.38,10.38,0,0,1,504.7,278.08ZM295.3,213.45l.07-.35c.68-3.28,1.52-7.37,2.39-8.08a7.51,7.51,0,0,1,4.71-2,5.27,5.27,0,0,1,2.47.63,11.34,11.34,0,0,1,4.16,4.26C306.86,210,302.46,211.76,295.3,213.45ZM172.53,283.13a90,90,0,0,1,.24,15C172.07,291,172,286,172.53,283.13Zm-22-44c.07-.8.15-1.65.22-2.54.3-4.13,2.42-11.17,3.72-11.47.15,0,.73.46,1.51,2,2,4-.11,13.07-2.17,20.62C149.79,246.73,150,244.47,150.5,239.14ZM411,287.87c1.19,2.87.41,7.39-2.27,13.15C408.4,294.79,409.22,290.07,411,287.87Zm1.44-3a1.39,1.39,0,0,0-1.81-.33c-6.08,3.64-4.9,17.05-4.37,21.22a97.28,97.28,0,0,1-9,12.87A93.62,93.62,0,0,0,400.74,303c1.36-12-1.75-22.1-4.84-30.6a38.19,38.19,0,0,0,9,1.07c5.32.05,12-.39,16.7-4.41a14.61,14.61,0,0,1,6,7.68c3.09,10.52,4,23.4,2.24,32.82-1.36,7.42-5.35,13.54-9.26,14.24-3.46.62-6.41-3-8.26-6.14-1.31-2.21-2.49-6.47-3.16-11.39C413,299.46,416.61,290.21,412.4,284.86Zm-21.64,57c.2,3.81.41,7.74-.81,10.63a7.5,7.5,0,0,0-6.08-1.23,7.15,7.15,0,0,0-2,.82c-.17-1.88-.37-3.86-.57-5.77l0-.34c-.16-1.56-.32-3.1-.46-4.55-.29-3.12-.53-6.28-.76-9.35a208.56,208.56,0,0,0-3-25.37c-.67-3.3-1.25-6.69-1.81-10-.26-1.57-.54-3.16-.82-4.76,2-9,4-21.46-2.26-25.42a1.4,1.4,0,0,0-1.77.23c-4.1,4.43-2.27,10.87-.81,16,.38,1.33.77,2.7,1,3.93.31,1.51.63,3.18,1,5.1-1.26,5.59-2.89,11.27-4.22,15.87a113.91,113.91,0,0,0-3,11.7c-.21,1.4-.28,3.93-.38,7.15-.22,7.28-.58,19.4-3.12,26.71a6.41,6.41,0,0,0-4.63-.76,8.16,8.16,0,0,0-2.79,1.16c.07-.5.14-1,.2-1.45a43.4,43.4,0,0,0,.65-6.21c-.35-7.14-1.19-14.31-2-21.26-.59-5-1.19-10.16-1.61-15.31a10,10,0,0,0,6.75-5.07c2.91-5.22,2.05-12.53-.24-16.76a39.62,39.62,0,0,0-5.68-7.6c.24-1.38.51-2.74.81-4.07,1.11-4.9,2.43-9.76,4.06-15.53a3.61,3.61,0,0,0,1.57-.17c2.14-.75,3.39-3.51,3.34-7.4a27.15,27.15,0,0,0-1-6.51l2.17.64c7.15,2.16,15.24,4.61,21.67-2.3v0c.06.39.13.77.21,1.16a70.46,70.46,0,0,0-.78,17.1,17.32,17.32,0,0,0,2.49,7.21c1.18,2.15,2.12,3.84,1.63,7.4a59.16,59.16,0,0,1-1.53,6.95,50.65,50.65,0,0,0-1.9,10.26c0,.67-.08,1.44-.13,2.32-.58,9.44-1.66,27,7.33,30.27a1.82,1.82,0,0,0,.49.09,55.73,55.73,0,0,0-1.26,7.85A49.31,49.31,0,0,0,390.76,341.87ZM384.52,354a4.7,4.7,0,0,1,4,.9,7.17,7.17,0,0,1-4.45,2.89,2.61,2.61,0,0,1-1.81-.47c0-.58-.06-1.18-.09-1.8A4.29,4.29,0,0,1,384.52,354Zm-2.41,8.28c0-.65.08-1.29.1-1.91a5.53,5.53,0,0,0,2.08.19,9.46,9.46,0,0,0,5.86-3.31c1.21,3.38,1,9.37-.65,13.92-.87,2.49-2.05,4.11-3.08,4.25-.8.12-1.9-.77-3-2.41C381.64,370.38,381.88,366.27,382.11,362.26ZM373,284.62c-.21-.8-.45-1.64-.7-2.54-1.2-4.23-2.55-9-.62-12.31C373.66,272.09,374.1,277.08,373,284.62Zm-30.47,1.93c-2.31-4.05-6.16-10.83-4.88-12.06l0,0c.56.24,2.68,2.91,5.6,13.42Zm-6.8-14.07c-2.86,2.72.34,8.34,4.38,15.46,3.23,5.67,6.88,12.1,5.86,15.05s-2.85,4.86-5.29,5.23c-5.28.82-12.58-4.6-15.59-8.66-.57-.76-1.14-1.56-1.74-2.39-1-1.39-2-2.83-3.14-4.25-.53-1.39-1.12-2.78-1.77-4.13a33.2,33.2,0,0,1-2-5.86,7.19,7.19,0,0,0,1.72.37c3.44.3,5.57-.36,6.49-2,1.4-2.49-.73-6-3.24-9.44l-.24-.34c-5.17-7.09-8.59-11.78-10.53-18,.12-.37.22-.75.3-1.11a24.54,24.54,0,0,0,.39-2.62l.15.2c2.71,3.33,14.28,5.47,14.39,5.49a31.48,31.48,0,0,0,9.91.14,42.27,42.27,0,0,0,3.14,12.73c2,4.37,5.35,7.9,8.55,11.32l1.13,1.21a95.82,95.82,0,0,0-1.12,11.94c-1.66-6.94-5.07-19.29-8.69-20.94A2.64,2.64,0,0,0,335.7,272.48Zm-29.19,87.25c-.33-5.17-.93-10.25-1.51-15.18-.35-3-.71-6.05-1-9.14.25-1.84.64-4.06,1-6.41,2.07-11.75,4.9-27.85-2.4-34.51a1.4,1.4,0,0,0-1.82-.05c-5.89,4.81-3.25,19.19-1.13,30.79.61,3.34,1.14,6.22,1.32,8.22.06.65.12,1.29.18,1.88s-.12,1-.16,1.42c-.17,1.77-.26,3.81-.35,5.79-.2,4.85-.44,10.33-1.87,14.29a6.1,6.1,0,0,0-5.13,1.95c-.23-1.26-.5-2.51-.79-3.86-.19-.88-.38-1.75-.56-2.65-1.94-9.58-3.56-19.4-4.9-27.74-.65-4.09-1.09-7.28-1.44-10.33,1.37-5.78.72-11.91-.67-19.26a103.27,103.27,0,0,1,1.51-11.18,79.12,79.12,0,0,0,1.63-15.35,13.08,13.08,0,0,0,5.11-.18A25.46,25.46,0,0,0,304.7,262a11.07,11.07,0,0,1,2.15,1.91c2.76,3.18,4.08,7.95,5.34,13.41l-.94-.68-.14-.1a32.58,32.58,0,0,0-5.29-3.39c-7.38-3.29-11-2.15-14.81,4.68-.07.13-7.09,12.9-2.4,17.42a1.39,1.39,0,0,0,1.93,0c2.45-2.37,7.31-6.58,12.26-8.15,6.48-2.05,11.19,2.49,14.93,7.22,6.45,17.44,1.93,34.94-3.7,52.83-.34,1.09-.57,2.07-.79,3a14.75,14.75,0,0,1-1.9,5.17,15,15,0,0,1-2.24,2A15.55,15.55,0,0,0,306.51,359.73Zm-3.82-33.51c-.09-.5-.18-1-.28-1.55-1.62-8.88-4.07-22.21-.71-27.11C306.39,303.54,304.34,316.78,302.69,326.22Zm-5.3,33.49a5.37,5.37,0,0,1-2,2.21,1.3,1.3,0,0,1,.06-.78A2.42,2.42,0,0,1,297.39,359.71ZM294.1,371.6a38,38,0,0,0,.42-4.81c0-.73,0-1.47-.07-2.21.92.32,2.64.33,4.66-2.44.12,5.88-1.59,13.55-5.16,17.18C293.41,377,293.76,374.25,294.1,371.6Zm-21.2-88.52c-2.26-5-4.66-7.32-7.27-7.18-4.65.25-7.59,8.12-10.7,17.59l0,.09c-.58,1.77-1.08,3.3-1.5,4.35-.89,2.22-1.91,4.49-3,6.89-4,8.87-8.44,18.9-7.29,28.67a7.75,7.75,0,0,0-3.37,1.78c-1.46,1.16-1.81,1.43-3.42-.5-1.88-2.26-1.5-8.59-1.23-13.22.07-1.17.14-2.38.17-3.46l1-.7c12.6-8.77,9.7-16.07,4.89-28.16-.82-2.06-1.46-3.73-2-5.23.72-2.58,1.54-5.23,2.45-7.88,4.13-12.05,11.85-14.48,23.54-18.17l.62-.2,2.77-.89.1,0a70.73,70.73,0,0,1,6.9-2c2.5,6.52,3.59,17.15,4.24,23.54.15,1.49.29,2.82.42,3.89.36,3,1,6.05,1.62,9.31.23,1.18.47,2.37.69,3.55l0,.43a116.48,116.48,0,0,0,.67,18.47,20.21,20.21,0,0,1-1.07,3.1c-2.34,5.28-6.11,10-9.75,14.66-1.75,2.23-3.56,4.53-5.22,6.9a22.27,22.27,0,0,0-3.32-4.77,76,76,0,0,1,6.37-11.36c1.14-1.77,2.12-3.3,2.67-4.4C277.7,308.42,277.72,293.68,272.9,283.08Zm-40.4,33.2c0,.1,0,.21,0,.32-5.14,3.42-12.57,7.86-19.49,10.19,1.25-1.41,2.58-3,4.13-4.88s3.43-5.89,5.17-10.93a13,13,0,0,0,5.74-3.83c3.07-4,1.16-9.85-1.27-16,.4-4.37.19-7.87-.61-10.39s-2.35-4.31-4.47-4.9a1.4,1.4,0,0,0-1.19.22,1.38,1.38,0,0,0-.58,1.06c-.17,4,1.74,8.71,3.58,13.31l.42,1.06a90.35,90.35,0,0,1-3.88,17.37l-.87.31c-2.65.95-5.39,1.93-7.45,3.92-4.05,3.9-6.25,9.29-6.74,16.48a1.43,1.43,0,0,0,.36,1A22.25,22.25,0,0,1,200.5,334l-1.07.52c-.41.21-.75.37-1.05.51-.23-4.47-1.09-8-2.51-10.32.44-.4.9-.8,1.37-1.21l1.39-1.18.05-.05c4-3.4,7.81-6.61,10.28-11.83,3.21-6.78,1.33-10.47-1.06-15.18-.52-1-1.05-2.07-1.58-3.23-6.26-13.86-4.27-22.15-.89-35.77a12.12,12.12,0,0,0,3.64.85c2.71.11,4.7-.26,5.93-1.1-1.11,1-2.37,2.47-1.74,4.12,1.36,3.58,10.63,2.72,11.68,2.61,2.09-.21,4.11-.52,6-.9,1,2.22,1.32,5.14,1.63,8a39.24,39.24,0,0,0,.85,5.45c.65,2.53,1.58,5.41,2.83,8.82A102.32,102.32,0,0,0,232.5,316.28Zm-13.62-4a31.14,31.14,0,0,1-3.89,7.9c-1.4,1.72-4,4.92-7,7.92h-.09c.64-5.63,2.52-9.88,5.74-13A15.07,15.07,0,0,1,218.88,312.25ZM224,283.89a28.31,28.31,0,0,1-1-3.52,7.09,7.09,0,0,1,.49,1.21A13.7,13.7,0,0,1,224,283.89Zm-.54,23.5A96.25,96.25,0,0,0,226,297.08c1.22,4.08,1.18,6.68-.11,8.37A7.54,7.54,0,0,1,223.48,307.39Zm-31.82,46.45c-1.54-1.57-2.7-5.47-3.13-10.45l.78-1.82,0-.07a50.24,50.24,0,0,0,2.64-7.1c.06-.23.11-.46.17-.69a8.07,8.07,0,0,0,.75,1.19,10.74,10.74,0,0,0,2.82,2.91c0,6.45-1.3,13.24-3.1,16.67A2.61,2.61,0,0,1,191.66,353.84Zm-5.94-10.94a29.83,29.83,0,0,0-2.18,7.39,24.25,24.25,0,0,0,.67,5.46c1,5.73,2.71,15.32-.35,18.58a4.24,4.24,0,0,1-3.78,1.06c-3.22-.38-1.62-14.44-.86-21.2.5-4.35.89-7.8.68-9.63-.18-1.59-.78-5-1.62-9.72-1.06-6-2.68-15.15-4-24.33,1.2-8.7,2.33-20.13.51-31.4a1.38,1.38,0,0,0-1.53-1.16,3.12,3.12,0,0,0-2.17,1.32c-2.35,3.13-2.22,13.06.38,31.28-.58,4.16-1.27,8.36-1.94,12.43q-.49,3-1,5.86l0,.2c-1.11,7-2.15,13.58-6,19.34a12.53,12.53,0,0,1-2.06,2.28c-1.6,1.5-3.41,3.21-2.81,6.6.39,2.15,2.22,3.58,4,5a9.5,9.5,0,0,1,2.56,2.48c1,2,1.07,8.44-.61,12.1a3.43,3.43,0,0,1-1.86,2,1.88,1.88,0,0,1-1.76-.26c-1.15-.83-2.58-3.45-2.93-11.14-.32-7,0-14.19.28-21.19.21-4.93.43-10,.43-15.06,0-10.05-1.55-19.64-3.05-28.92-2.12-13.16-4.13-25.59-2.11-39.21a94.73,94.73,0,0,1,2.51-10c.2-.7.4-1.42.6-2.15,6.74.65,16.23-1.88,20.34-3.32a18.19,18.19,0,0,0,5.84-3c-.19,6.68,1.95,13.38,4,19.88.92,2.88,1.87,5.87,2.6,8.78,2.81,11.34,2.79,24.39,2.77,37v3.13a102.59,102.59,0,0,1-.68,12.66A20.23,20.23,0,0,0,185.63,339,38.31,38.31,0,0,0,185.72,342.9Zm7.48-94.52a44,44,0,0,0,9.65,6.75l-.06.23c-3.43,13.86-5.7,23,1,37.84.56,1.24,1.11,2.32,1.65,3.38,2.27,4.46,3.64,7.15,1,12.7-2.22,4.67-5.79,7.7-9.57,10.9l-.09.08-1.36,1.16c-.51.43-1,.86-1.46,1.29l-.15,0c.22-2.81.33-5.83.33-9.24v-3.13c0-12.2,0-26-2.85-37.69-.75-3-1.72-6-2.65-9-2.35-7.36-4.57-14.32-3.73-21.23a30.35,30.35,0,0,1,2.45-8.37A18.48,18.48,0,0,0,193.2,248.38ZM212.72,201l-.35.34c.27-1.08.52-2.17.74-3.15a59.76,59.76,0,0,1,2.82-9.75,17.62,17.62,0,0,1,2.88-4.62,4.28,4.28,0,0,1,2.45,1.28,2.11,2.11,0,0,1,0,.25C221.58,188.88,217.57,196.19,212.72,201Zm-1.49,4.84a21.47,21.47,0,0,0,3.46-2.87,40.2,40.2,0,0,0,7.76-11.13c-.23,1.43-.59,2.9-.91,4.25a26.36,26.36,0,0,0-1,5.48,9.51,9.51,0,0,0,3.68,8,57.88,57.88,0,0,0-15.76,3.45A19.9,19.9,0,0,0,211.23,205.88Zm2.14-18.5a60.67,60.67,0,0,0-3,10.23c-.39,1.67-.78,3.41-1.23,5-.13.47-.25.95-.37,1.42a4.29,4.29,0,0,1-1.4.44,8.33,8.33,0,0,0,.34-.82,22.76,22.76,0,0,0,1-7.16c.11-2.81.22-5.47,1.53-7.75a11.09,11.09,0,0,1,4.49-4.13A23,23,0,0,0,213.37,187.38Zm25.41,32.85a1.35,1.35,0,0,0,.37.3c.72,2.45,1.54,4.95,2.34,7.39.23.72.47,1.44.69,2.11a14.06,14.06,0,0,1-.21,6.06c-.8,2.55-1.55,3.3-2,3.48-.91.35-2.7-.73-4.61-1.87-.63-.38-1.29-.78-2-1.17a42.58,42.58,0,0,0-4.44-2c-3.69-1.51-8.29-3.38-9.45-5.71a12.5,12.5,0,0,1-1-2.53,36.61,36.61,0,0,1,5.85,3.35c.71.47,1.32.87,1.77,1.14,3.91,2.3,5.58,2.81,6.86,2.09s1.35-2.34,1.38-4.19a26.83,26.83,0,0,1,.22-3.38,14.67,14.67,0,0,1,1.89-5,16.54,16.54,0,0,0,1.16-2.47,12.57,12.57,0,0,1,.89,1.18v0A1.39,1.39,0,0,0,238.78,220.23Zm.92-42.7c.22-4.32,0-9-.24-13.45-.38-7.53-.77-15.32.9-21.93,1-3.92,2.44-6.48,4.1-7.2a2.55,2.55,0,0,1,1-.21,3.59,3.59,0,0,1,1.37.29,20.77,20.77,0,0,1-1.71,8.47,1.41,1.41,0,0,0,.64,1.7c2.54,1.4,4.74.52,6.69-.27l1.18-.45a32.4,32.4,0,0,1-3.43,4.32c-2.5,2.82-5.08,5.73-6,9.82-1.25,5.61-.81,12.76-.43,19.07v.15c.07,1.11.14,2.19.19,3.22,0,.87.14,2.09.27,3.63v.11c.48,5.82,1.37,16.64.31,24.46a20.28,20.28,0,0,0-4.2,5c-.06-.26-.11-.53-.16-.79-2-10.29-1.46-19.88-.86-30.05Q239.55,180.52,239.7,177.53Zm15.47,32.93c1.94.79,3.93,1.6,6.58.59l.26.15c3.48,1.9,6.43,2.15,8.75.75,2.14-1.3,3.44-3.85,4.21-6.93-.1,1.21-.21,2.41-.33,3.59l-.18,1.84c-.24,2.36-.49,4.81-.63,7.26-12.52,2.59-24.13,6.14-24.71,14.33a1.39,1.39,0,0,0,.95,1.41c9.32,3.12,17.24-4,23.68-10,0,.86.08,1.7.16,2.5a40.72,40.72,0,0,0,1.08,5.58c.88,3.57,1.7,6.95.5,10.21A9,9,0,0,1,272,246.4c-3.13-1.34-6.84-1.05-10.11-.79h-.08c-1,.07-1.94.15-2.87.18h-.07a56.26,56.26,0,0,0-10,1.09,16.31,16.31,0,0,0-.08-1.83c-.56-5.08-2.3-10.74-3.9-15.65a38.05,38.05,0,0,0-2.72-9.26,6.37,6.37,0,0,0,1.9-1.46c1.44-1.62,2.49-4.28,3.11-7.92a6.45,6.45,0,0,1,3.3-1.36A10.41,10.41,0,0,1,255.17,210.46Zm25.13-6.2a72.23,72.23,0,0,1,0-7.52,73,73,0,0,1,8.57-29.9c.2-.38.43-.86.7-1.4,1.24-2.52,3.56-7.22,5.6-7.89a5,5,0,0,1,1.46-.28.87.87,0,0,1,.78.29c.5.78,0,3.27-1.79,5.11a1.39,1.39,0,0,0,1.79,2.11A10.5,10.5,0,0,1,301.2,163a31,31,0,0,1-4.36,3.71,27.25,27.25,0,0,0-6.08,5.62c-3.38,4.7-3.65,10.46-3.92,16,0,.6,0,1.19-.08,1.78a41.94,41.94,0,0,0,1.09,10.55,41.54,41.54,0,0,1,1,8.71,14.77,14.77,0,0,1-1.29,5.64l-4.89.92-3.84.72C280.65,212.69,280.48,208.59,280.3,204.26Zm45.27-4c1.91,2.34,5.77,2,9.86,1.73,2.84-.23,5.77-.45,7.76.25a26.51,26.51,0,0,1,9.51,5.58c-.2,1-.36,2.06-.48,3.18a24.85,24.85,0,0,0-3.71,4.87,5.92,5.92,0,0,0-2-2,1.4,1.4,0,0,0-1.67.16c-7.93,7.29-10.44,25.18-9.42,38.81a27.81,27.81,0,0,1-9.18-.09c-3.56-.61-11.27-2.76-12.69-4.51-1.74-2.14-1-4,.47-7.22,1-2.23,2.2-4.76,1.81-7.58a7.14,7.14,0,0,0-2.55-5l.06-.21a39.08,39.08,0,0,0,1.83-8,25.16,25.16,0,0,0-2.7-12c3.57-4.69,3-10.39,2.44-15.92s-1.09-10.78,2.53-14.73a6,6,0,0,1,5.12-2.18,7.07,7.07,0,0,1,5.1,4c2.14,4,.87,6.62-.75,9.92a27.46,27.46,0,0,0-1.88,4.54C324.24,196.77,324.41,198.84,325.57,200.27ZM424,194c1.44-7.78-.38-15-2.15-22a75.44,75.44,0,0,1-2.59-13.74c2.95,1.81,5.38,5.52,6.59,8.24,8.31,18.62,4.77,39.08,1,59a7.83,7.83,0,0,0-.38-2.5,11.42,11.42,0,0,0-6.5-6.75c.17-5.93,1.85-12.91,3-17.59C423.44,196.85,423.82,195.25,424,194Zm-.17,29.84a5,5,0,0,1-.12,3.43,6,6,0,0,1-1.75-1.67l-.06-.21c-.12-.41-.23-.84-.35-1.27a39.67,39.67,0,0,0-1.48-4.72A8.34,8.34,0,0,1,423.87,223.87Zm-.05,6.55a1.38,1.38,0,0,0,1.63-.49,8.38,8.38,0,0,0,1-1.79c-.32,1.67-.63,3.32-.93,5a5.92,5.92,0,0,1-2.19-2.9C423.46,230.28,423.64,230.36,423.82,230.42Zm1.24,5.79a77.79,77.79,0,0,0,0,9.17c.26,7.42.53,15.08-3.83,20.18a28.48,28.48,0,0,0-3-1.43c-7.72-3.15-16.57-3-22.57.34a14.62,14.62,0,0,0-2.21,1.46,123.67,123.67,0,0,1-6.27-20.1c.16-1.14.32-2.27.49-3.4a110.21,110.21,0,0,0,1.57-15.88c0-1.51-.06-2.94-.11-4.21-.18-4.23-.33-7.88,1.56-12.33a22.74,22.74,0,0,1,5-6.88c-1.33,3.61-3.61,11.48-.32,16.08a7.89,7.89,0,0,0,6.28,3.19,6.67,6.67,0,0,0,.78,4,1.4,1.4,0,0,0,1.51.68c3.83-.82,7.27-3.7,10-8.32a7.4,7.4,0,0,1,2.56-.45,10.94,10.94,0,0,1,.88,1.65,15.06,15.06,0,0,0,2.14,7c.11.4.21.77.3,1.12l0,.09C420.92,232.4,421.42,233.77,425.06,236.21Zm-229.95,97a9.24,9.24,0,0,1-1.63-6.1l.36-.39a19.14,19.14,0,0,1,1.72,7.07Zm18.58-79.81c-.11.41-1.19,1.09-4.51,1a9.6,9.6,0,0,1-3.1-.81c.34-1.52.82-3.82,1.31-6.55l.38.2C211.56,249.18,214,252.33,213.69,253.41Zm-8.41-10.63c-3.94-2.1-6.91-4.24-6.86-9.81,0-2.54,1.55-8.25,3.87-9.59a1.82,1.82,0,0,1,.9-.26,2.44,2.44,0,0,1,1.16.35C206.56,224.72,206.9,231.93,205.28,242.78ZM397,266.9c5.2-2.91,13.3-3,20.16-.19.64.26,1.27.55,1.88.86-3.94,2.85-9.34,3.2-14.11,3.14-5.83-.06-9.74-1.19-10.37-1.83l0-.07A6.24,6.24,0,0,1,397,266.9Zm-50-30.28,0,.12c.29,1.24.59,2.52.82,3.75a24.35,24.35,0,0,1,.34,2.93,15.16,15.16,0,0,0-4.22,4,26.87,26.87,0,0,1-1.87,2.17c.92-2.21,1.73-4.45,2.51-6.64S346.13,238.7,347,236.62ZM345.88,217a4.9,4.9,0,0,1,.86,2.83,24.84,24.84,0,0,0-.91,3.64,19.94,19.94,0,0,0-.29,3.25c-1.12,3.7-2.82,7.83-4.48,11.82-1.1,2.69-2.16,5.25-3,7.65C338.12,235.84,340.21,223.22,345.88,217ZM353,245a18.73,18.73,0,0,1,4.25.51c.07.27.15.54.22.81-.91,3.41-1.87,6.79-2.8,10.06a14.84,14.84,0,0,1-1.32-1.51c-1.85-2.41-2-6.09-2.23-9.65A8.43,8.43,0,0,1,353,245ZM361,216.12c.75-1.92,2.44-3.91,5.16-6.1a86.51,86.51,0,0,1-1.54,8.78A13.85,13.85,0,0,1,361,216.12Zm-3.82,41.44.14-.52q.59-2,1.17-4.11C358.53,255.74,357.78,257.17,357.19,257.56Zm25.13-15c-5.28,5.94-12,3.92-19.05,1.78-.76-.24-1.52-.46-2.27-.68.47-1.85.91-3.66,1.29-5.38.23-1,.72-2.68,1.34-4.83l0-.11c.85-3,1.95-6.8,2.89-10.58l2.09.83.07,0a28.85,28.85,0,0,1,7.58,3.84c4.5,3.58,6.13,8.8,7.13,13.45A7.52,7.52,0,0,1,382.32,242.56Zm-4.86-69.76c2.83-.89,5,2.36,6.23,5.23,1.36,3,.53,5.83-.35,8.79a22.73,22.73,0,0,0-1.23,6.25c0,.92,0,1.87.09,2.9a10.68,10.68,0,0,1-2.62.18c-4.29-.26-7.29-3.27-8.23-8.27a7.76,7.76,0,0,1-.13-.82c0-1,0-2-.06-3C371.55,178.91,374.44,173.74,377.46,172.8Zm-19.1,44.51a16.44,16.44,0,0,0,5.61,4.28c-1,4.26-2.21,8.29-3,11-.65,2.23-1.16,4-1.4,5.08s-.52,2.23-.81,3.44a55.74,55.74,0,0,1-1.66-6.27l-.21-1.14c-.45-2.45-1.14-6.14-1.61-10.17a24.25,24.25,0,0,0,3-6.36ZM404.45,224a4.25,4.25,0,0,1,0-1.74c.46-.06.93-.13,1.42-.22a13.81,13.81,0,0,0,2.61-.8A11.28,11.28,0,0,1,404.45,224Zm1.45-4.82a8.2,8.2,0,0,1,5.49-3.38l.48,0h.38c-.13.25-.26.5-.4.75-.76.33-1.5.7-2.16,1A18.93,18.93,0,0,1,405.9,219.22ZM380,201.47l2.68-1.48.21,1.51v.07a58.87,58.87,0,0,1,.72,7.89c0,2.36.32,5.45.65,8.77.57,5.73,1.22,12.18.62,17.3A21.16,21.16,0,0,0,378,225.28a31.18,31.18,0,0,0-8.3-4.25c-.82-.33-1.68-.66-2.51-1a70.1,70.1,0,0,0,1.94-12.18C372.53,205.55,376.47,203.39,380,201.47Zm-30.27,25.41-.11.16c-.4.56-.79,1.13-1.18,1.69,0-.56-.07-1.09-.07-1.61a25.86,25.86,0,0,0,1.2-6.8,18.53,18.53,0,0,1,2.49-4.74,71.49,71.49,0,0,0,.41,7.28C351.54,224.22,350.56,225.63,349.68,226.88ZM294,259.24a18,18,0,0,1,8.13,1.35,22.32,22.32,0,0,1-9.16,4.92,10,10,0,0,1-4.68,0q-.07-.74-.18-1.47c-.14-1-.32-2-.52-2.95A14.14,14.14,0,0,1,294,259.24Zm14.8-23.57c-.12,1.29-.17,2.59-.18,3.87-.28-3.75-.91-6.5-3.12-9a13.35,13.35,0,0,1,4.45-.41A33.3,33.3,0,0,0,308.79,235.67ZM306.67,260a22.82,22.82,0,0,0,2.21-2.91c2.17,5.38,5.46,9.89,10,16.08l.24.34c3.41,4.66,3.28,6.05,3.06,6.44-.08.14-.65.86-3.83.59a7.39,7.39,0,0,1-2.78-1c-.11-.49-.22-1-.34-1.49-1.31-5.81-2.67-11.82-6.25-15.94A13.88,13.88,0,0,0,306.67,260ZM302,284.45c-4.62,1.46-9,4.86-12,7.57-.67-2.88,1.24-8.77,3.52-12.82,2.05-3.67,3.65-5,5.91-5a13.85,13.85,0,0,1,5.33,1.52,31.16,31.16,0,0,1,4.82,3.12c1.18.86,2.4,1.74,3.6,2.5a57,57,0,0,0,1.67,5.91C310.67,283.93,306.48,283,302,284.45Zm9.43-44.28c0-1.35,0-2.82.18-4.23a27.16,27.16,0,0,1,.84-4.34,6,6,0,0,1,.69,2.26c.28,2-.62,4-1.58,6l0,.07Zm-22.2-12a6.72,6.72,0,0,0,1.66-1.56,32.76,32.76,0,0,1,8.55,2.59C293.53,230.82,290.45,231,289.19,228.21Zm-60,31.17c-1.43.25-2.95.46-4.51.62-3.77.4-8.21-.11-8.75-.77.07-.18.4-.77,1.86-1.81a6.52,6.52,0,0,1,3.91-1.19,9.21,9.21,0,0,1,1.55.14A11.79,11.79,0,0,1,229.16,259.38Zm43.32-38.53-.27.25c-5.92,5.51-12.63,11.74-20.12,10C253.61,225.72,263.59,222.79,272.48,220.85ZM264.11,249l-1.17.24c-.59.13-1.6.41-2.92.77-6.56,1.82-10.83,2.7-12.67,2.63a11.8,11.8,0,0,0,1.12-2.73,45.45,45.45,0,0,1,10.47-1.3H259c1,0,2.06-.12,3.06-.19a37.8,37.8,0,0,1,5.45-.18C266.46,248.49,265.32,248.72,264.11,249ZM245.56,255c2.37.88,7.39-.2,15.2-2.36,1.2-.34,2.24-.62,2.76-.73l1.15-.24a31.34,31.34,0,0,0,7.34-2.13,6.71,6.71,0,0,1,.93.76,8.21,8.21,0,0,1,1.4,1.89c-2,.46-4.19,1.18-6.56,2l-2.85.92-.62.19c-11.6,3.66-20.75,6.55-25.33,19.93-.5,1.45-1,2.89-1.41,4.3-.59-1.8-1.08-3.41-1.47-4.91a39.53,39.53,0,0,1-.77-5.07,31.76,31.76,0,0,0-1.65-8.3C239,259.84,243,257.75,245.56,255Zm31.67-44.3.19-1.84c.06-.7.13-1.39.19-2.08a22.21,22.21,0,0,1-.71,7.27C277,212.92,277.12,211.78,277.23,210.73ZM238.6,290.26c4.53,11.38,6.82,17.15-3.38,24.48A97.94,97.94,0,0,1,238,288.65Zm38.62-38.53a12.39,12.39,0,0,0-2.34-3.4l-.37-.34a11.88,11.88,0,0,0,3.59-5.26c1.5-4.07.53-8-.4-11.84a36.81,36.81,0,0,1-1-5.19,44.14,44.14,0,0,1-.17-5.13l.5-.66c2.08-.41,4.16-.8,6.21-1.18l2.84-.53c-.38.68-.77,1.36-1.18,2.07a53.8,53.8,0,0,0-2.89,5.55,1.39,1.39,0,0,0,.49,1.69,7.49,7.49,0,0,0,4,1.49c2.35,6.11,9.35,4.13,15,2.54l.87-.24c3.09,2.77,3.38,5.84,3.61,11a48.87,48.87,0,0,0,1.67,11.21,17.35,17.35,0,0,1-3.38,5,20.62,20.62,0,0,0-9.1-2.11c-.46,0-.92,0-1.37.05a17.45,17.45,0,0,0-7,1.92,10.06,10.06,0,0,0-3.93-5.55A8.82,8.82,0,0,0,277.22,251.73Zm136.22-38.57a10,10,0,0,0-2.22-.1c-3.18.19-6.67,2.63-8.48,5.93-.12.21-.23.43-.33.65-2.23,0-3.85-.7-4.8-2-2.89-4-.11-13,2.78-18.13,2.46-4.32,6.64-7.46,9.94-7.46a4.61,4.61,0,0,1,.84.07c2.95.56,4.07,4.06,4.49,6.9C416.23,202.87,415.38,208.28,413.44,213.16ZM399.29,195a41.22,41.22,0,0,1-4.45,5c-2.51,2.54-5.1,5.16-6.71,8.93a23.1,23.1,0,0,0-1.52,5.12c-.14-1.63-.25-3.27-.25-4.58a63.22,63.22,0,0,0-.75-8.27q-.19-1.37-.36-2.7a42.71,42.71,0,0,0,4.14-2.69l.41-.33a18.59,18.59,0,0,0,2.85-2.76l.47-.49c2.22-2.31,4.73-4.93,6.62-5.44,1.61-.44,2.54-.33,2.75,0C403.09,187.61,401.83,191.39,399.29,195Zm-5.81-9.44a15.91,15.91,0,0,1-2.64,5.05,33.45,33.45,0,0,1-3.11,3,15.13,15.13,0,0,1-2.79,1.58c0-.71-.05-1.38,0-2a19.93,19.93,0,0,1,1.11-5.49c1-3.32,2-6.75.22-10.72-2.6-5.82-5.69-7-7.82-7a6,6,0,0,0-1.78.28,10.13,10.13,0,0,0-5.19,4.44,10.48,10.48,0,0,1,3.7-6.78c4.24-3.38,8.49-1.4,10.65.08C391.5,171.8,395.16,180.21,393.48,185.53Zm-14.6,13.35-.29.16c-3.17,1.74-6.45,3.55-9.47,5.47a11.64,11.64,0,0,0-1.07-4.4,15.28,15.28,0,0,0,2.65-6.28A10.83,10.83,0,0,0,378.88,198.88Zm-20.23,15.68a10.1,10.1,0,0,0-1-4.72l1.85-1.52.14-.11a64.31,64.31,0,0,0,6.4-5.7,14.27,14.27,0,0,1,.4,3.83C362.43,209.19,359.87,211.89,358.65,214.56Zm-.79-8.51c-.58.46-1.16.93-1.73,1.41l-.38-.47a13.13,13.13,0,0,1,1.75-3.88,7.22,7.22,0,0,1,4.92-3.13,3.33,3.33,0,0,1,2,.15A56.32,56.32,0,0,1,357.86,206.05Zm-3,6.23.52-.5a7.14,7.14,0,0,1,.43,3.25,11.5,11.5,0,0,1-1,3.44A50.74,50.74,0,0,1,354.88,212.28Zm-1.77,30h-.2a11.7,11.7,0,0,0-2,.2c-.09-1-.19-1.74-.32-2.46-.24-1.28-.53-2.54-.86-3.92-.24-1.05-.5-2.14-.72-3.22.88-1.4,1.89-2.83,3-4.36l1-1.42c.4,2.78.86,5.25,1.2,7.09l.22,1.19a63.47,63.47,0,0,0,1.9,7.11l0,.08A19.46,19.46,0,0,0,353.11,242.24Zm-40.69-22.17a36.12,36.12,0,0,1-1.69,7.33c-2.31-.44-5.06.14-7.71.83-.39-.29-.82-.58-1.27-.87a35.17,35.17,0,0,0-9.39-3.31,41.19,41.19,0,0,0,2.3-7.59c8-1.79,12.87-3.66,15.76-6A22,22,0,0,1,312.42,220.07Zm-23.07,3.8a4.12,4.12,0,0,0-2.15.72,2.73,2.73,0,0,0-1.06,1.59,4.13,4.13,0,0,1-1.09-.37c.67-1.41,1.47-2.79,2.26-4.17s1.54-2.69,2.23-4.11l2.11-.43A28.56,28.56,0,0,1,289.35,223.87ZM277,154.59a118.71,118.71,0,0,0-.88,18v1.31q0,5.15-.08,9.76a99.48,99.48,0,0,0-2.31-21.47c-1-4.15-3.14-7.62-5.25-11a50.33,50.33,0,0,1-3.63-6.49,6.15,6.15,0,0,1,2.38,1,1.4,1.4,0,0,0,1,.27,1.37,1.37,0,0,0,.92-.55c.76-1,1-2.65,1.27-4.55.46-3.22.91-4.93,1.89-4.81.59.08,1.52,2.06,2.79,5.87a14.55,14.55,0,0,0,1.84,4.3,1.39,1.39,0,0,0,2.41-.56,18.2,18.2,0,0,1,.64-2,50.79,50.79,0,0,1-1.65,6A37,37,0,0,0,277,154.59ZM234,219a17.1,17.1,0,0,0-2.2,5.91,29.89,29.89,0,0,0-.24,3.71,14.67,14.67,0,0,1-.09,1.72,19.1,19.1,0,0,1-4-2c-.4-.24-1-.64-1.65-1.06-4.44-2.94-7.72-4.9-9.48-3.34-1.47,1.3-.51,3.8.62,6.08,1.63,3.27,6.55,5.28,10.89,7.05A40.6,40.6,0,0,1,232,239c.68.39,1.32.77,1.93,1.14,2.72,1.62,4.86,2.91,7,2.09,1.5-.58,2.6-2,3.51-4.69a53.13,53.13,0,0,1,1.59,7.87,11.53,11.53,0,0,1,0,2.42c-2.22.94-2.63,2-2.82,2.48a3.16,3.16,0,0,0,.32,2.85c-2.29,2.47-6.07,4.36-11.25,5.61a14.26,14.26,0,0,0-8.59-5.1,12.07,12.07,0,0,0-2-.18,9.29,9.29,0,0,0-5.53,1.72c-.16.11-.37.26-.6.44a3.3,3.3,0,0,0,.85-1.47c.89-3.34-3.84-7.58-7.32-9.4l-1.18-.61c.32-2,.58-3.94.77-5.69,1.09-10,.13-15.66-2.94-17.38a4.63,4.63,0,0,0-4.81-.08c-3.62,2.09-5.24,8.94-5.26,12-.07,7.29,4.1,10.11,9.17,12.74-.38,2.23-.82,4.47-1.31,6.65a40.16,40.16,0,0,1-8.34-5.93,15.53,15.53,0,0,1-4.82-13.84c.93-5.62,5-10.66,10.81-13.48,6.89-3.33,20.73-8.38,28.91-6.2a35.53,35.53,0,0,1,4.64,2.5,1.67,1.67,0,0,1,.32.52C235.25,216.61,234.68,217.67,234,219Zm-36.78-1.82.06-.09c.56,0,1,.07,1.51.08a24.77,24.77,0,0,0-2.7,1.72Zm5.76-3.35a10.28,10.28,0,0,1-3.86.56A38.91,38.91,0,0,1,202.3,211a37.48,37.48,0,0,0,3.51-3.82,8.25,8.25,0,0,0,1.06.16,5,5,0,0,0,1.15,0C207.28,210,206.24,212.6,202.94,213.85ZM189,223.42c.69-2,1.49-4.29,2.21-6.48a14.5,14.5,0,0,1,2.85-.08c-2.15,3.25-4.36,6.66-6.29,10.14.38-1.12.79-2.3,1.21-3.51ZM283,281.91c-.12-1.07-.26-2.38-.41-3.85-.68-6.68-1.71-16.72-4.18-23.6a5.73,5.73,0,0,1,3,.74c1.28.8,2.26,2.37,3,4.8a12.36,12.36,0,0,0-2.49,2.78,1.42,1.42,0,0,0,0,1.6,10.38,10.38,0,0,0,3.67,3.11c.27,5.28-.61,10.39-1.55,15.79l0,.21c-.14.86-.29,1.73-.44,2.59C283.32,284.47,283.11,283.15,283,281.91Zm1.88-18.42.3-.35.12.76Zm54.89-9a13,13,0,0,0,2.47-1.36,19.55,19.55,0,0,0,3.94-4,20.42,20.42,0,0,1,2.22-2.48c.22,3.69.65,7.19,2.74,9.91a13.23,13.23,0,0,0,2.69,2.74c-1.38,4.85-2.94,10.46-4.2,16-.16.7-.31,1.42-.45,2.13-3-3.16-6-6.43-7.76-10.28a37.72,37.72,0,0,1-2.77-10.79C339,255.82,339.37,255.19,339.73,254.53ZM351,283.62a30.31,30.31,0,0,1,3.78,5.35c2,3.62,2.59,9.88.25,14.07a7.14,7.14,0,0,1-4.51,3.62A115.7,115.7,0,0,1,351,283.62ZM357.07,359a4.67,4.67,0,0,1-4.28,0c0-.21,0-.42.07-.62a6.05,6.05,0,0,1,3.92-3,3.62,3.62,0,0,1,3,.63A7.32,7.32,0,0,1,357.07,359Zm-4.53,2.84a7.11,7.11,0,0,0,5.9-.41,8.83,8.83,0,0,0,2.87-2.77A20.39,20.39,0,0,1,360,366.7c-1.1,3.11-2.64,5.42-3.81,5.74a2.12,2.12,0,0,1-2.17-.27C352.64,371,352.15,367.49,352.54,361.79Zm34.38-64.48c.05-.87.1-1.66.13-2.35a47.91,47.91,0,0,1,1.82-9.7,62.91,62.91,0,0,0,1.59-7.27,12.81,12.81,0,0,0-2-9.12,14.91,14.91,0,0,1-2.15-6.16,51.17,51.17,0,0,1-.07-8.9c1.42,4.82,3.16,9.4,4.85,13.83l.66,1.74,0,.09a2.26,2.26,0,0,0,.23.57c4,10.73,7.29,20.59,5.94,32.68a94.21,94.21,0,0,1-3.57,15.61c-.44,1.51-.93,3.22-1.4,4.93-.46.46-.9.87-1.3,1.22C385.46,321.08,386.44,305.05,386.92,297.31ZM259.53,183.76h.15a8.14,8.14,0,0,1,8.06,5.57c2,5.44.16,13.44-4,17.13a13.91,13.91,0,0,1-1.7,1.32c-3.85-3.7-8.73-14.7-7.14-20.68C255.53,184.86,257,183.76,259.53,183.76Zm-68.06,20.06c.07,1.84-.74,5.46-2.42,10.76a10.18,10.18,0,0,0-1,.36C187.69,211.85,189.11,206.48,191.47,203.82ZM306.53,370.9c.14-1.62.25-2.79.25-3.4,0-.9,0-1.83,0-2.76a9.81,9.81,0,0,0,2.39,2.18c1.56,1.14,3,2.22,3.26,5,.15,2-1.87,9-4.45,10.61a1.6,1.6,0,0,1-1.7.14C305.82,381.63,305.91,377.7,306.53,370.9ZM203,206.15c-.81,1-1.72,1.86-2.69,2.82a31.71,31.71,0,0,0-4.3,4.9l-.21.33c-1-.09-2-.16-2.9-.16l-.79,0c2.26-7.39,2.63-11.32,1.19-13.15l.29.08a23,23,0,0,1,5.36,2.82A37.27,37.27,0,0,0,203,206.15ZM245.39,344a20.94,20.94,0,0,1-.54,10.34c-1.32,4.42-4.21,11.75-8.89,11.75h-.08c-2.61-7.4,1.32-12,5.51-17A52.27,52.27,0,0,0,245.39,344ZM260,333.83l.08.09.54.59c-1,3-1.18,5.59-.51,7.59a6.86,6.86,0,0,0,2.93,3.67l-.35.8c-1.81,4.17-4.07,9.34-7.37,9.56C254.57,349.43,256.34,337.13,260,333.83Zm5.19,7.75c-.17.27-.33.54-.49.81s-.31.52-.46.83a4,4,0,0,1-1.49-2,7.68,7.68,0,0,1,0-4.18A10.41,10.41,0,0,1,265.18,341.58Zm-95-157.45c-3.18-3-5.2-5.36-4.71-8.52,3-1.49,4.72-3,5.4-4.8a5.11,5.11,0,0,0,.08-3.26,12.3,12.3,0,0,1,6.82-2.2,15.27,15.27,0,0,1,11.65,5.18,20.4,20.4,0,0,1,4.38,14.6,9.21,9.21,0,0,1-3.91,6.82,5.35,5.35,0,0,1-4.71.66,8.64,8.64,0,0,1-5.15-5.16c-1.13-3-.2-5,.89-7.39a14.3,14.3,0,0,0,1.73-6.85,1.39,1.39,0,0,0-.6-1.08,7.47,7.47,0,0,0-4.2-1.48,5.22,5.22,0,0,0-2.47.61c-3.76,2-5.15,8-5.2,12.63Zm-5.56,6.3c-2.51-.45-5.1-.91-7.28-.26a12,12,0,0,0-3.28,1.54,10.92,10.92,0,0,0-4.83-3.06c-1-.4-2-.78-2.15-1.25-.11-.28-.14-1,.8-2.89,1.31-2.56,6.24-4.41,11-6.19,1.31-.5,2.56-1,3.77-1.46.17,4.17,3.43,7.24,6.59,10.22l.09.09c.39.36.78.72,1.16,1.1a23.46,23.46,0,0,0,.54,2.5C169.24,191.25,167,190.85,164.6,190.43ZM124.26,324.08a1.4,1.4,0,0,0-.12-1.64,13.35,13.35,0,0,0-5-3.62c-2-.95-2.71-1.27-1.68-5.82a41.89,41.89,0,0,1,1.8-5.54c1.28-3.39,2.5-6.59,2.15-11.25s-6-23.81-12.79-24.74c-2.71-.36-4.94,1.83-6.64,6.53-.49,1.38-.91,4.84-1.49,9.64-1.22,10.21-3.28,27.29-7.45,30.5a1.54,1.54,0,0,1-1.18.37.42.42,0,0,1-.35-.22c-1.18-1.78.67-8.61,1.56-11.89a34.91,34.91,0,0,0,.89-3.66c1-7.42-.22-13-1.61-19.53-2.32-10.88-1.24-19.91,0-30.36.18-1.57.37-3.16.55-4.79.12-1.07.23-2.21.31-3.39a35.1,35.1,0,0,1,10-2.54c6.93-.95,16.56.21,22.93,6.29-.28.67-.52,1.28-.73,1.87A158.72,158.72,0,0,0,121.08,266c-1.12,4.68-2.18,9.1-3.62,13.43a1.4,1.4,0,0,0,2.23,1.5,12.61,12.61,0,0,1,3.35-1.67c0,.62,0,1.34-.06,2v.07c-.14,3.85-.29,8.22,1.66,10.3a3.56,3.56,0,0,0,2.56,1.15h.14c5.54,0,6-9.36,6.19-14.42,0-.76.06-1.42.1-1.83.35-3.57.79-7,1.3-10.33a105.53,105.53,0,0,1,3.75,23.08c.57,10.34-3.51,17.45-8.23,25.69l0,.06c-1.15,2-2.34,4.08-3.5,6.27a70.27,70.27,0,0,0-2.9,7.58c-2.38,6.84-6.38,18.29-9.69,19.73a.89.89,0,0,1-.78,0c-2.28-1-3-6.38-2-14.38,0-.27.07-.56.11-.87.21-1.86.57-5,1.72-6a2.2,2.2,0,0,1,1.49-.68,5.06,5.06,0,0,1,1.19.22,5.06,5.06,0,0,0,4-.22,3.56,3.56,0,0,1,1.17-.39A4,4,0,0,0,124.26,324.08ZM118,180.53c0-2.89-.09-5.62,1.34-7.88a8.87,8.87,0,0,1,5.92-4.14,6.63,6.63,0,0,1,5.4,1.46c2.75,2.22,4.06,7,4.15,10.73a11.83,11.83,0,0,0-2.84,7.45l-1.26,1.4c-2.09,2.29-4.07,4.45-4.16,7-.23,6.36,5.35,6.6,9,6.75,1.78.08,3.62.16,4.67.73,4.65,2.54,5.18,8.33,4.13,12.9-.8,3.48-2.67,6.24-5,7.5a14.14,14.14,0,0,0-.17-3.77,1.4,1.4,0,0,0-1.22-1.14c-3.8-.4-6.26,1.24-7.2,2.77a3.43,3.43,0,0,0-.06,3.73c.52.8,1.84,2.08,5.17,2-1.17,4-3.51,8.33-5.79,12.52-1,1.8-1.91,3.5-2.73,5.16-4.9-4.27-12.09-6.72-19.8-6.72a35.27,35.27,0,0,0-4.74.32,41.35,41.35,0,0,0-9.5,2.26c.19-5,.06-10.17-.08-15.19-.14-5.38-.28-10.94,0-16.2l.05-1.11c.15-3.25.3-6.9,1.28-9.93A5.56,5.56,0,0,0,99.49,202c6.47,0,15.78-8.78,17.72-14.08A20.06,20.06,0,0,0,118,180.53Zm18.5,44.74c-2.23.19-3.21-.35-3.44-.71a.69.69,0,0,1,.09-.76,4.15,4.15,0,0,1,3.46-1.5A13.69,13.69,0,0,1,136.5,225.27Zm-5.64,51c-.05.5-.08,1.16-.12,2-.14,3.21-.53,11.74-3.45,11.74a.81.81,0,0,1-.62-.27c-1.16-1.24-1-5.66-.91-8.3a17.58,17.58,0,0,0-.15-4.6,1.37,1.37,0,0,0-.77-.89,1.39,1.39,0,0,0-.57-.12,1.43,1.43,0,0,0-.61.14c-.4.2-1,.41-1.57.65l-1,.38c1-3.43,1.84-7,2.66-10.38A158.78,158.78,0,0,1,128,251.21c.05-.15.11-.31.17-.47a17.93,17.93,0,0,1,1.39,2.15,56.92,56.92,0,0,1,3.48,7.66C132.15,265.45,131.4,270.72,130.86,276.24Zm35.36-108a17.55,17.55,0,0,0-3.12,5.43c-1.61.72-3.44,1.4-5.22,2.07-5.26,2-10.7,4-12.49,7.53-1.13,2.2-1.43,3.84-.93,5.14.61,1.63,2.2,2.25,3.74,2.86a8.44,8.44,0,0,1,3.72,2.28,15.31,15.31,0,0,0-2.84,4.39l-.21-.2c-1.63-1.52-4.08-2.34-6.45-3.14-2.88-1-5.86-1.95-7-4.09a5.66,5.66,0,0,1-.54-1.47,10.82,10.82,0,0,0,2.46-4.76,17,17,0,0,0,.27-2.57c.29-.34.6-.69.93-1,7.16-7.51,21.62-13.5,28.13-13C166.51,167.85,166.36,168,166.22,168.21ZM134.1,255.65c-.65-1.43-1.35-2.82-2.07-4.11a20.82,20.82,0,0,0-2.58-3.68c.89-1.87,2-3.83,3.11-5.94,2.41-4.44,5.15-9.46,6.29-14.25,4.69-1.34,7.34-6.06,8.26-10.07,1.28-5.56.51-12.67-5.5-16-1.62-.89-3.79-1-5.9-1.07-5-.21-6.49-.77-6.38-3.87.06-1.58,1.7-3.37,3.43-5.27h0c.06.13.12.26.19.39,1.68,3.1,5.18,4.27,8.57,5.4,2.19.73,4.25,1.42,5.44,2.54a11.66,11.66,0,0,1,1.09,1.15,22.71,22.71,0,0,0-.72,4.83,1.4,1.4,0,0,0,1.23,1.45,5.41,5.41,0,0,0,1.61-.05,29.59,29.59,0,0,1-.83,6.28c-1.23,5.84-3.86,11.48-6.42,17-1.72,3.68-3.49,7.48-4.86,11.37A123.82,123.82,0,0,0,134.1,255.65Zm18-53.35a11.82,11.82,0,0,0-1-1.91,14.24,14.24,0,0,1,1.93-3.84A10.84,10.84,0,0,1,152.07,202.3Zm-44.73-30.62a23.71,23.71,0,0,0,1.1,6.55c.93,3.54,1.8,6.88.09,9.25-1.07,1.48-3.46,2-6,2.56s-5,1.1-7,2.59c-1.08-9.12,2.26-22.69,6.06-30.2a112.73,112.73,0,0,1,7.12-11.63c4.26-6.37,8.67-13,10.64-20.69a25.08,25.08,0,0,0,.43-4.54c.16-3.45.42-9.22,2.6-9.44h.27a1.54,1.54,0,0,1,1.24.53c1.8,2,1.1,8.64.51,11.36-1.27,5.8-4.35,11.41-7.32,16.84a112,112,0,0,0-5.37,10.67C109.69,160.52,107.55,165.69,107.34,171.68ZM89.17,327.47c1.31,1.9,1.46,4.65.47,8.39-.7,2.68-2.82,6-5,6.58a2.73,2.73,0,0,1-2.73-.85c-2.78-2.62-.53-11.47.32-14.81l.06-.23c.21-.83.43-1.67.66-2.51C86.09,324.78,88.06,325.87,89.17,327.47Z"></path></g></svg>